<svg xmlns="http://www.w3.org/2000/svg" xmlns:xlink="http://www.w3.org/1999/xlink" width="500" zoomAndPan="magnify" viewBox="0 0 375 374.999991" height="500" preserveAspectRatio="xMidYMid meet" version="1.0"><defs><g/></defs><rect x="-37.5" width="450" fill="#ffffff" y="-37.499999" height="449.999989" fill-opacity="1"/><rect x="-37.5" width="450" fill="#182633" y="-37.499999" height="449.999989" fill-opacity="1"/><path fill="#e89105" d="M 188.769531 251.71875 L 174.976562 230.34375 L 182.765625 205.261719 L 166.5625 220.101562 L 165.578125 245.804688 L 155.214844 219.324219 L 170.324219 191.910156 L 148.617188 211.617188 L 148.238281 231.671875 L 126.976562 221.503906 L 144.613281 199.199219 L 140.234375 194.296875 L 134.09375 204.402344 L 132.273438 198.484375 L 130.699219 203.675781 L 128.425781 195.359375 L 128.425781 199.851562 L 122.839844 191.0625 L 124.835938 179.808594 L 120.664062 175.144531 L 120.230469 167.140625 L 114.519531 157.867188 L 135.757812 141.46875 L 135.757812 138.402344 L 145.3125 130.523438 L 135.46875 119.113281 L 151.007812 119.125 L 151.007812 120.3125 L 138.0625 120.304688 L 147.003906 130.664062 L 136.941406 138.964844 L 136.941406 142.054688 L 116.089844 158.15625 L 121.402344 166.773438 L 121.828125 174.664062 L 126.105469 179.449219 L 124.089844 190.816406 L 127.238281 195.769531 L 127.238281 186.519531 L 130.757812 199.390625 L 132.265625 194.417969 L 134.453125 201.527344 L 140.054688 192.308594 L 146.164062 199.15625 L 128.828125 221.078125 L 147.085938 229.808594 L 147.441406 211.085938 L 147.632812 210.910156 L 174.808594 186.234375 L 156.519531 219.410156 L 164.609375 240.070312 L 165.394531 219.5625 L 185.203125 201.417969 L 176.273438 230.167969 L 188.011719 248.355469 L 197.082031 179.199219 L 201.132812 229.652344 L 220.160156 199.46875 L 216.742188 226.972656 L 233.515625 211.320312 L 230.136719 173.832031 L 246.738281 188.253906 L 227.6875 149.941406 L 249.804688 168.425781 L 231.214844 140.96875 L 243.988281 136.753906 L 217.585938 121.515625 L 218.179688 120.488281 L 246.878906 137.050781 L 233.078125 141.601562 L 255.523438 174.75 L 231.273438 154.484375 L 250.449219 193.050781 L 231.582031 176.660156 L 234.75 211.789062 L 215.160156 230.070312 L 218.328125 204.601562 L 200.234375 233.300781 L 196.800781 190.5 Z M 188.769531 251.71875 " fill-opacity="1" fill-rule="nonzero"/><path fill="#fcc300" d="M 175.027344 145.378906 L 184.160156 149.277344 L 176.359375 139.671875 L 186.539062 139.957031 L 171.511719 130.636719 L 177.691406 130.066406 L 168.75 126.925781 L 173.625 117.390625 L 166.628906 120.808594 L 162.777344 118.882812 L 162.792969 118.949219 L 164.566406 127.117188 L 158.710938 122.882812 L 139.359375 139.195312 L 139.359375 143 L 119.957031 158.410156 L 133.316406 158.117188 L 125.449219 164.542969 L 122.980469 166.5625 L 129.699219 175.449219 L 135.761719 177.566406 L 141.570312 179.597656 L 151.527344 173.835938 L 148.714844 169.917969 L 139.496094 168.394531 L 148.023438 167.933594 L 146.496094 165.128906 L 136.414062 163.257812 L 146.496094 162.878906 L 142.882812 157.457031 L 144.496094 150.136719 L 145.542969 156.792969 L 148.585938 160.121094 L 168.371094 157.265625 L 153.34375 164.210938 L 153.058594 176.480469 L 164.945312 170.964844 L 162.570312 184.851562 L 174.640625 169.644531 L 174.648438 169.632812 L 174.648438 169.621094 L 175.21875 152.796875 L 188.394531 161.261719 Z M 156.019531 146.765625 L 149.566406 146.765625 L 153.210938 144.109375 L 145.390625 146.1875 L 151.691406 139.78125 L 156.4375 140.464844 L 162.777344 141.375 Z M 156.019531 146.765625 " fill-opacity="1" fill-rule="nonzero"/><path fill="#fcc300" d="M 144.222656 183.800781 L 142.894531 186.492188 L 132.226562 187.433594 L 127.644531 180.351562 L 129.390625 176.953125 C 129.394531 176.953125 129.394531 176.949219 129.394531 176.949219 L 142.109375 182.824219 Z M 144.222656 183.800781 " fill-opacity="1" fill-rule="nonzero"/><path fill="#e89105" d="M 198.296875 129.792969 L 194.480469 121.355469 L 191.519531 119.789062 L 185.1875 131.589844 L 177.195312 124.265625 L 191.519531 111.121094 L 197.8125 117.832031 Z M 198.296875 129.792969 " fill-opacity="1" fill-rule="nonzero"/><path fill="#e89105" d="M 209.84375 151.855469 C 209.84375 152.1875 209.78125 152.507812 209.652344 152.8125 C 209.527344 153.117188 209.34375 153.390625 209.113281 153.625 C 208.878906 153.859375 208.605469 154.039062 208.300781 154.164062 C 207.996094 154.292969 207.675781 154.355469 207.34375 154.355469 C 207.015625 154.355469 206.695312 154.292969 206.390625 154.164062 C 206.082031 154.039062 205.8125 153.859375 205.578125 153.625 C 205.34375 153.390625 205.164062 153.117188 205.039062 152.8125 C 204.910156 152.507812 204.847656 152.1875 204.847656 151.855469 C 204.847656 151.527344 204.910156 151.207031 205.039062 150.902344 C 205.164062 150.59375 205.34375 150.324219 205.578125 150.089844 C 205.8125 149.855469 206.082031 149.675781 206.390625 149.550781 C 206.695312 149.421875 207.015625 149.359375 207.34375 149.359375 C 207.675781 149.359375 207.996094 149.421875 208.300781 149.550781 C 208.605469 149.675781 208.878906 149.855469 209.113281 150.089844 C 209.34375 150.324219 209.527344 150.59375 209.652344 150.902344 C 209.78125 151.207031 209.84375 151.527344 209.84375 151.855469 Z M 209.84375 151.855469 " fill-opacity="1" fill-rule="nonzero"/><path fill="#e89105" d="M 188.476562 139.597656 C 188.476562 139.929688 188.414062 140.25 188.285156 140.554688 C 188.160156 140.859375 187.980469 141.132812 187.746094 141.367188 C 187.511719 141.597656 187.242188 141.78125 186.933594 141.90625 C 186.628906 142.035156 186.308594 142.097656 185.980469 142.097656 C 185.648438 142.097656 185.328125 142.035156 185.023438 141.90625 C 184.71875 141.78125 184.445312 141.597656 184.210938 141.367188 C 183.976562 141.132812 183.796875 140.859375 183.671875 140.554688 C 183.542969 140.25 183.480469 139.929688 183.480469 139.597656 C 183.480469 139.269531 183.542969 138.949219 183.671875 138.644531 C 183.796875 138.335938 183.976562 138.066406 184.210938 137.832031 C 184.445312 137.597656 184.71875 137.417969 185.023438 137.292969 C 185.328125 137.164062 185.648438 137.101562 185.980469 137.101562 C 186.308594 137.101562 186.628906 137.164062 186.933594 137.292969 C 187.242188 137.417969 187.511719 137.597656 187.746094 137.832031 C 187.980469 138.066406 188.160156 138.335938 188.285156 138.644531 C 188.414062 138.949219 188.476562 139.269531 188.476562 139.597656 Z M 188.476562 139.597656 " fill-opacity="1" fill-rule="nonzero"/><path fill="#e89105" d="M 153.390625 119.71875 C 153.390625 120.050781 153.328125 120.367188 153.199219 120.675781 C 153.074219 120.980469 152.894531 121.25 152.660156 121.484375 C 152.425781 121.71875 152.15625 121.898438 151.847656 122.027344 C 151.542969 122.152344 151.222656 122.21875 150.894531 122.21875 C 150.5625 122.21875 150.242188 122.152344 149.9375 122.027344 C 149.632812 121.898438 149.359375 121.71875 149.125 121.484375 C 148.890625 121.25 148.710938 120.980469 148.585938 120.675781 C 148.457031 120.367188 148.394531 120.050781 148.394531 119.71875 C 148.394531 119.386719 148.457031 119.070312 148.585938 118.761719 C 148.710938 118.457031 148.890625 118.1875 149.125 117.953125 C 149.359375 117.71875 149.632812 117.539062 149.9375 117.410156 C 150.242188 117.285156 150.5625 117.222656 150.894531 117.222656 C 151.222656 117.222656 151.542969 117.285156 151.847656 117.410156 C 152.15625 117.539062 152.425781 117.71875 152.660156 117.953125 C 152.894531 118.1875 153.074219 118.457031 153.199219 118.761719 C 153.328125 119.070312 153.390625 119.386719 153.390625 119.71875 Z M 153.390625 119.71875 " fill-opacity="1" fill-rule="nonzero"/><path fill="#e89105" d="M 177.191406 169.246094 C 177.191406 169.578125 177.128906 169.898438 177.003906 170.203125 C 176.875 170.507812 176.695312 170.777344 176.460938 171.011719 C 176.226562 171.246094 175.957031 171.429688 175.652344 171.554688 C 175.34375 171.679688 175.027344 171.746094 174.695312 171.746094 C 174.363281 171.746094 174.046875 171.679688 173.738281 171.554688 C 173.433594 171.429688 173.164062 171.246094 172.929688 171.011719 C 172.695312 170.777344 172.515625 170.507812 172.386719 170.203125 C 172.261719 169.898438 172.195312 169.578125 172.195312 169.246094 C 172.195312 168.914062 172.261719 168.597656 172.386719 168.289062 C 172.515625 167.984375 172.695312 167.714844 172.929688 167.480469 C 173.164062 167.246094 173.433594 167.066406 173.738281 166.9375 C 174.046875 166.8125 174.363281 166.75 174.695312 166.75 C 175.027344 166.75 175.34375 166.8125 175.652344 166.9375 C 175.957031 167.066406 176.226562 167.246094 176.460938 167.480469 C 176.695312 167.714844 176.875 167.984375 177.003906 168.289062 C 177.128906 168.597656 177.191406 168.914062 177.191406 169.246094 Z M 177.191406 169.246094 " fill-opacity="1" fill-rule="nonzero"/><path fill="#e89105" d="M 234.757812 140.964844 C 234.757812 141.296875 234.695312 141.613281 234.570312 141.921875 C 234.441406 142.226562 234.261719 142.496094 234.027344 142.730469 C 233.792969 142.964844 233.523438 143.144531 233.21875 143.273438 C 232.910156 143.398438 232.59375 143.464844 232.261719 143.464844 C 231.929688 143.464844 231.609375 143.398438 231.304688 143.273438 C 231 143.144531 230.730469 142.964844 230.496094 142.730469 C 230.261719 142.496094 230.078125 142.226562 229.953125 141.921875 C 229.828125 141.613281 229.761719 141.296875 229.761719 140.964844 C 229.761719 140.632812 229.828125 140.316406 229.953125 140.007812 C 230.078125 139.703125 230.261719 139.433594 230.496094 139.199219 C 230.730469 138.964844 231 138.785156 231.304688 138.65625 C 231.609375 138.53125 231.929688 138.46875 232.261719 138.46875 C 232.59375 138.46875 232.910156 138.53125 233.21875 138.65625 C 233.523438 138.785156 233.792969 138.964844 234.027344 139.199219 C 234.261719 139.433594 234.441406 139.703125 234.570312 140.007812 C 234.695312 140.316406 234.757812 140.632812 234.757812 140.964844 Z M 234.757812 140.964844 " fill-opacity="1" fill-rule="nonzero"/><path fill="#e89105" d="M 248.617188 136.601562 C 248.617188 137.058594 248.53125 137.496094 248.355469 137.917969 C 248.183594 138.34375 247.933594 138.714844 247.609375 139.039062 C 247.285156 139.359375 246.914062 139.609375 246.492188 139.785156 C 246.070312 139.960938 245.628906 140.046875 245.171875 140.046875 C 244.714844 140.046875 244.277344 139.960938 243.855469 139.785156 C 243.433594 139.609375 243.058594 139.359375 242.738281 139.039062 C 242.414062 138.714844 242.164062 138.34375 241.988281 137.917969 C 241.816406 137.496094 241.726562 137.058594 241.726562 136.601562 C 241.726562 136.144531 241.816406 135.703125 241.988281 135.28125 C 242.164062 134.859375 242.414062 134.488281 242.738281 134.164062 C 243.058594 133.839844 243.433594 133.59375 243.855469 133.417969 C 244.277344 133.242188 244.714844 133.15625 245.171875 133.15625 C 245.628906 133.15625 246.070312 133.242188 246.492188 133.417969 C 246.914062 133.59375 247.285156 133.839844 247.609375 134.164062 C 247.933594 134.488281 248.183594 134.859375 248.355469 135.28125 C 248.53125 135.703125 248.617188 136.144531 248.617188 136.601562 Z M 248.617188 136.601562 " fill-opacity="1" fill-rule="nonzero"/><path fill="#e89105" d="M 160.277344 219.335938 C 160.277344 219.792969 160.191406 220.230469 160.015625 220.652344 C 159.84375 221.074219 159.59375 221.449219 159.269531 221.773438 C 158.945312 222.09375 158.574219 222.34375 158.152344 222.519531 C 157.730469 222.695312 157.289062 222.78125 156.832031 222.78125 C 156.375 222.78125 155.9375 222.695312 155.515625 222.519531 C 155.09375 222.34375 154.71875 222.09375 154.394531 221.773438 C 154.074219 221.449219 153.824219 221.074219 153.648438 220.652344 C 153.472656 220.230469 153.386719 219.792969 153.386719 219.335938 C 153.386719 218.878906 153.472656 218.4375 153.648438 218.015625 C 153.824219 217.59375 154.074219 217.222656 154.394531 216.898438 C 154.71875 216.574219 155.09375 216.324219 155.515625 216.152344 C 155.9375 215.976562 156.375 215.890625 156.832031 215.890625 C 157.289062 215.890625 157.730469 215.976562 158.152344 216.152344 C 158.574219 216.324219 158.945312 216.574219 159.269531 216.898438 C 159.59375 217.222656 159.84375 217.59375 160.015625 218.015625 C 160.191406 218.4375 160.277344 218.878906 160.277344 219.335938 Z M 160.277344 219.335938 " fill-opacity="1" fill-rule="nonzero"/><path fill="#e89105" d="M 131.863281 221.5 C 131.863281 221.957031 131.777344 222.398438 131.601562 222.820312 C 131.425781 223.242188 131.175781 223.613281 130.855469 223.9375 C 130.53125 224.261719 130.15625 224.507812 129.734375 224.683594 C 129.3125 224.859375 128.875 224.945312 128.417969 224.945312 C 127.960938 224.945312 127.519531 224.859375 127.097656 224.683594 C 126.675781 224.507812 126.304688 224.261719 125.980469 223.9375 C 125.65625 223.613281 125.410156 223.242188 125.234375 222.820312 C 125.058594 222.398438 124.972656 221.957031 124.972656 221.5 C 124.972656 221.042969 125.058594 220.605469 125.234375 220.183594 C 125.410156 219.761719 125.65625 219.386719 125.980469 219.0625 C 126.304688 218.742188 126.675781 218.492188 127.097656 218.316406 C 127.519531 218.140625 127.960938 218.054688 128.417969 218.054688 C 128.875 218.054688 129.3125 218.140625 129.734375 218.316406 C 130.15625 218.492188 130.53125 218.742188 130.855469 219.0625 C 131.175781 219.386719 131.425781 219.761719 131.601562 220.183594 C 131.777344 220.605469 131.863281 221.042969 131.863281 221.5 Z M 131.863281 221.5 " fill-opacity="1" fill-rule="nonzero"/><path fill="#e89105" d="M 231.097656 151.152344 C 231.097656 151.484375 231.035156 151.804688 230.910156 152.109375 C 230.78125 152.414062 230.601562 152.683594 230.367188 152.917969 C 230.132812 153.152344 229.863281 153.335938 229.558594 153.460938 C 229.25 153.585938 228.933594 153.652344 228.601562 153.652344 C 228.269531 153.652344 227.949219 153.585938 227.644531 153.460938 C 227.339844 153.335938 227.070312 153.152344 226.835938 152.917969 C 226.601562 152.683594 226.421875 152.414062 226.292969 152.109375 C 226.167969 151.804688 226.101562 151.484375 226.101562 151.152344 C 226.101562 150.820312 226.167969 150.503906 226.292969 150.195312 C 226.421875 149.890625 226.601562 149.621094 226.835938 149.386719 C 227.070312 149.152344 227.339844 148.972656 227.644531 148.84375 C 227.949219 148.71875 228.269531 148.65625 228.601562 148.65625 C 228.933594 148.65625 229.25 148.71875 229.558594 148.84375 C 229.863281 148.972656 230.132812 149.152344 230.367188 149.386719 C 230.601562 149.621094 230.78125 149.890625 230.910156 150.195312 C 231.035156 150.503906 231.097656 150.820312 231.097656 151.152344 Z M 231.097656 151.152344 " fill-opacity="1" fill-rule="nonzero"/><path fill="#e89105" d="M 178.621094 230.226562 C 178.621094 230.558594 178.558594 230.875 178.429688 231.183594 C 178.304688 231.488281 178.125 231.757812 177.890625 231.992188 C 177.65625 232.226562 177.386719 232.40625 177.078125 232.535156 C 176.773438 232.660156 176.453125 232.726562 176.125 232.726562 C 175.792969 232.726562 175.472656 232.660156 175.167969 232.535156 C 174.859375 232.40625 174.589844 232.226562 174.355469 231.992188 C 174.121094 231.757812 173.941406 231.488281 173.816406 231.183594 C 173.6875 230.875 173.625 230.558594 173.625 230.226562 C 173.625 229.894531 173.6875 229.578125 173.816406 229.269531 C 173.941406 228.964844 174.121094 228.695312 174.355469 228.460938 C 174.589844 228.226562 174.859375 228.046875 175.167969 227.917969 C 175.472656 227.792969 175.792969 227.730469 176.125 227.730469 C 176.453125 227.730469 176.773438 227.792969 177.078125 227.917969 C 177.386719 228.046875 177.65625 228.226562 177.890625 228.460938 C 178.125 228.695312 178.304688 228.964844 178.429688 229.269531 C 178.558594 229.578125 178.621094 229.894531 178.621094 230.226562 Z M 178.621094 230.226562 " fill-opacity="1" fill-rule="nonzero"/><path fill="#e89105" d="M 147.890625 199.179688 C 147.890625 199.511719 147.824219 199.828125 147.699219 200.136719 C 147.570312 200.441406 147.390625 200.710938 147.15625 200.945312 C 146.921875 201.179688 146.652344 201.359375 146.347656 201.488281 C 146.039062 201.613281 145.722656 201.675781 145.390625 201.675781 C 145.058594 201.675781 144.742188 201.613281 144.433594 201.488281 C 144.128906 201.359375 143.859375 201.179688 143.625 200.945312 C 143.390625 200.710938 143.210938 200.441406 143.082031 200.136719 C 142.957031 199.828125 142.894531 199.511719 142.894531 199.179688 C 142.894531 198.847656 142.957031 198.527344 143.082031 198.222656 C 143.210938 197.917969 143.390625 197.648438 143.625 197.414062 C 143.859375 197.179688 144.128906 196.996094 144.433594 196.871094 C 144.742188 196.746094 145.058594 196.679688 145.390625 196.679688 C 145.722656 196.679688 146.039062 196.746094 146.347656 196.871094 C 146.652344 196.996094 146.921875 197.179688 147.15625 197.414062 C 147.390625 197.648438 147.570312 197.917969 147.699219 198.222656 C 147.824219 198.527344 147.890625 198.847656 147.890625 199.179688 Z M 147.890625 199.179688 " fill-opacity="1" fill-rule="nonzero"/><path fill="#e89105" d="M 176.125 187.6875 C 176.125 188.019531 176.058594 188.339844 175.933594 188.644531 C 175.804688 188.949219 175.625 189.222656 175.390625 189.457031 C 175.15625 189.691406 174.886719 189.871094 174.582031 189.996094 C 174.273438 190.125 173.957031 190.1875 173.625 190.1875 C 173.292969 190.1875 172.976562 190.125 172.667969 189.996094 C 172.363281 189.871094 172.09375 189.691406 171.859375 189.457031 C 171.625 189.222656 171.445312 188.949219 171.316406 188.644531 C 171.191406 188.339844 171.128906 188.019531 171.128906 187.6875 C 171.128906 187.359375 171.191406 187.039062 171.316406 186.734375 C 171.445312 186.425781 171.625 186.15625 171.859375 185.921875 C 172.09375 185.6875 172.363281 185.507812 172.667969 185.382812 C 172.976562 185.253906 173.292969 185.191406 173.625 185.191406 C 173.957031 185.191406 174.273438 185.253906 174.582031 185.382812 C 174.886719 185.507812 175.15625 185.6875 175.390625 185.921875 C 175.625 186.15625 175.804688 186.425781 175.933594 186.734375 C 176.058594 187.039062 176.125 187.359375 176.125 187.6875 Z M 176.125 187.6875 " fill-opacity="1" fill-rule="nonzero"/><path fill="#e89105" d="M 256.960938 174.097656 C 256.960938 174.429688 256.894531 174.75 256.769531 175.054688 C 256.640625 175.359375 256.460938 175.632812 256.226562 175.867188 C 255.992188 176.097656 255.722656 176.28125 255.417969 176.40625 C 255.109375 176.535156 254.792969 176.597656 254.460938 176.597656 C 254.128906 176.597656 253.8125 176.535156 253.503906 176.40625 C 253.199219 176.28125 252.929688 176.097656 252.695312 175.867188 C 252.460938 175.632812 252.28125 175.359375 252.152344 175.054688 C 252.027344 174.75 251.964844 174.429688 251.964844 174.097656 C 251.964844 173.769531 252.027344 173.449219 252.152344 173.144531 C 252.28125 172.835938 252.460938 172.566406 252.695312 172.332031 C 252.929688 172.097656 253.199219 171.917969 253.503906 171.792969 C 253.8125 171.664062 254.128906 171.601562 254.460938 171.601562 C 254.792969 171.601562 255.109375 171.664062 255.417969 171.792969 C 255.722656 171.917969 255.992188 172.097656 256.226562 172.332031 C 256.460938 172.566406 256.640625 172.835938 256.769531 173.144531 C 256.894531 173.449219 256.960938 173.769531 256.960938 174.097656 Z M 256.960938 174.097656 " fill-opacity="1" fill-rule="nonzero"/><path fill="#e89105" d="M 233.339844 175.277344 C 233.339844 175.609375 233.277344 175.929688 233.152344 176.234375 C 233.023438 176.539062 232.84375 176.8125 232.609375 177.046875 C 232.375 177.28125 232.105469 177.460938 231.800781 177.585938 C 231.492188 177.714844 231.175781 177.777344 230.84375 177.777344 C 230.511719 177.777344 230.191406 177.714844 229.886719 177.585938 C 229.582031 177.460938 229.3125 177.28125 229.078125 177.046875 C 228.84375 176.8125 228.660156 176.539062 228.535156 176.234375 C 228.410156 175.929688 228.34375 175.609375 228.34375 175.277344 C 228.34375 174.949219 228.410156 174.628906 228.535156 174.324219 C 228.660156 174.015625 228.84375 173.746094 229.078125 173.511719 C 229.3125 173.277344 229.582031 173.097656 229.886719 172.972656 C 230.191406 172.84375 230.511719 172.78125 230.84375 172.78125 C 231.175781 172.78125 231.492188 172.84375 231.800781 172.972656 C 232.105469 173.097656 232.375 173.277344 232.609375 173.511719 C 232.84375 173.746094 233.023438 174.015625 233.152344 174.324219 C 233.277344 174.628906 233.339844 174.949219 233.339844 175.277344 Z M 233.339844 175.277344 " fill-opacity="1" fill-rule="nonzero"/><path fill="#e89105" d="M 237.53125 211.351562 C 237.53125 211.792969 237.445312 212.222656 237.277344 212.628906 C 237.105469 213.039062 236.863281 213.402344 236.550781 213.714844 C 236.238281 214.027344 235.875 214.269531 235.464844 214.441406 C 235.058594 214.609375 234.628906 214.695312 234.1875 214.695312 C 233.742188 214.695312 233.316406 214.609375 232.90625 214.441406 C 232.496094 214.269531 232.136719 214.027344 231.824219 213.714844 C 231.507812 213.402344 231.265625 213.039062 231.097656 212.628906 C 230.929688 212.222656 230.84375 211.792969 230.84375 211.351562 C 230.84375 210.90625 230.929688 210.480469 231.097656 210.070312 C 231.265625 209.660156 231.507812 209.300781 231.824219 208.988281 C 232.136719 208.671875 232.496094 208.429688 232.90625 208.261719 C 233.316406 208.089844 233.742188 208.007812 234.1875 208.007812 C 234.628906 208.007812 235.058594 208.089844 235.464844 208.261719 C 235.875 208.429688 236.238281 208.671875 236.550781 208.988281 C 236.863281 209.300781 237.105469 209.660156 237.277344 210.070312 C 237.445312 210.480469 237.53125 210.90625 237.53125 211.351562 Z M 237.53125 211.351562 " fill-opacity="1" fill-rule="nonzero"/><path fill="#e89105" d="M 200.390625 182.191406 C 200.390625 182.636719 200.304688 183.0625 200.132812 183.472656 C 199.964844 183.882812 199.722656 184.242188 199.410156 184.558594 C 199.097656 184.871094 198.734375 185.113281 198.324219 185.28125 C 197.914062 185.453125 197.488281 185.535156 197.046875 185.535156 C 196.601562 185.535156 196.175781 185.453125 195.765625 185.28125 C 195.355469 185.113281 194.992188 184.871094 194.679688 184.558594 C 194.367188 184.242188 194.125 183.882812 193.957031 183.472656 C 193.785156 183.0625 193.699219 182.636719 193.699219 182.191406 C 193.699219 181.75 193.785156 181.324219 193.957031 180.914062 C 194.125 180.503906 194.367188 180.140625 194.679688 179.828125 C 194.992188 179.515625 195.355469 179.273438 195.765625 179.101562 C 196.175781 178.933594 196.601562 178.847656 197.046875 178.847656 C 197.488281 178.847656 197.914062 178.933594 198.324219 179.101562 C 198.734375 179.273438 199.097656 179.515625 199.410156 179.828125 C 199.722656 180.140625 199.964844 180.503906 200.132812 180.914062 C 200.304688 181.324219 200.390625 181.75 200.390625 182.191406 Z M 200.390625 182.191406 " fill-opacity="1" fill-rule="nonzero"/><path fill="#e89105" d="M 251.964844 190.777344 C 251.964844 191.222656 251.878906 191.648438 251.707031 192.058594 C 251.539062 192.46875 251.296875 192.828125 250.984375 193.144531 C 250.671875 193.457031 250.308594 193.699219 249.898438 193.867188 C 249.488281 194.039062 249.0625 194.121094 248.617188 194.121094 C 248.175781 194.121094 247.75 194.039062 247.339844 193.867188 C 246.929688 193.699219 246.566406 193.457031 246.253906 193.144531 C 245.941406 192.828125 245.699219 192.46875 245.53125 192.058594 C 245.359375 191.648438 245.273438 191.222656 245.273438 190.777344 C 245.273438 190.335938 245.359375 189.910156 245.53125 189.5 C 245.699219 189.089844 245.941406 188.726562 246.253906 188.414062 C 246.566406 188.101562 246.929688 187.859375 247.339844 187.691406 C 247.75 187.519531 248.175781 187.433594 248.617188 187.433594 C 249.0625 187.433594 249.488281 187.519531 249.898438 187.691406 C 250.308594 187.859375 250.671875 188.101562 250.984375 188.414062 C 251.296875 188.726562 251.539062 189.089844 251.707031 189.5 C 251.878906 189.910156 251.964844 190.335938 251.964844 190.777344 Z M 251.964844 190.777344 " fill-opacity="1" fill-rule="nonzero"/><path fill="#e89105" d="M 203.554688 231.359375 C 203.554688 231.691406 203.488281 232.011719 203.363281 232.316406 C 203.234375 232.621094 203.054688 232.894531 202.820312 233.128906 C 202.585938 233.363281 202.316406 233.542969 202.011719 233.667969 C 201.703125 233.796875 201.386719 233.859375 201.054688 233.859375 C 200.722656 233.859375 200.40625 233.796875 200.097656 233.667969 C 199.792969 233.542969 199.523438 233.363281 199.289062 233.128906 C 199.054688 232.894531 198.875 232.621094 198.746094 232.316406 C 198.621094 232.011719 198.558594 231.691406 198.558594 231.359375 C 198.558594 231.03125 198.621094 230.710938 198.746094 230.40625 C 198.875 230.097656 199.054688 229.828125 199.289062 229.59375 C 199.523438 229.359375 199.792969 229.179688 200.097656 229.054688 C 200.40625 228.925781 200.722656 228.863281 201.054688 228.863281 C 201.386719 228.863281 201.703125 228.925781 202.011719 229.054688 C 202.316406 229.179688 202.585938 229.359375 202.820312 229.59375 C 203.054688 229.828125 203.234375 230.097656 203.363281 230.40625 C 203.488281 230.710938 203.554688 231.03125 203.554688 231.359375 Z M 203.554688 231.359375 " fill-opacity="1" fill-rule="nonzero"/><path fill="#e89105" d="M 190.949219 250.84375 C 190.949219 251.175781 190.886719 251.496094 190.761719 251.800781 C 190.632812 252.105469 190.453125 252.378906 190.21875 252.609375 C 189.984375 252.84375 189.714844 253.027344 189.410156 253.152344 C 189.101562 253.28125 188.785156 253.34375 188.453125 253.34375 C 188.121094 253.34375 187.804688 253.28125 187.496094 253.152344 C 187.191406 253.027344 186.921875 252.84375 186.6875 252.609375 C 186.453125 252.378906 186.273438 252.105469 186.144531 251.800781 C 186.019531 251.496094 185.953125 251.175781 185.957031 250.84375 C 185.953125 250.515625 186.019531 250.195312 186.144531 249.890625 C 186.273438 249.582031 186.453125 249.3125 186.6875 249.078125 C 186.921875 248.84375 187.191406 248.664062 187.496094 248.535156 C 187.804688 248.410156 188.121094 248.347656 188.453125 248.347656 C 188.785156 248.347656 189.101562 248.410156 189.410156 248.535156 C 189.714844 248.664062 189.984375 248.84375 190.21875 249.078125 C 190.453125 249.3125 190.632812 249.582031 190.761719 249.890625 C 190.886719 250.195312 190.949219 250.515625 190.949219 250.84375 Z M 190.949219 250.84375 " fill-opacity="1" fill-rule="nonzero"/><path fill="#e89105" d="M 167.773438 243.613281 C 167.773438 243.945312 167.710938 244.265625 167.585938 244.570312 C 167.457031 244.875 167.277344 245.148438 167.042969 245.382812 C 166.808594 245.617188 166.539062 245.796875 166.234375 245.921875 C 165.925781 246.050781 165.609375 246.113281 165.277344 246.113281 C 164.945312 246.113281 164.628906 246.050781 164.320312 245.921875 C 164.015625 245.796875 163.746094 245.617188 163.511719 245.382812 C 163.277344 245.148438 163.097656 244.875 162.96875 244.570312 C 162.84375 244.265625 162.777344 243.945312 162.777344 243.613281 C 162.777344 243.285156 162.84375 242.964844 162.96875 242.660156 C 163.097656 242.351562 163.277344 242.082031 163.511719 241.847656 C 163.746094 241.613281 164.015625 241.433594 164.320312 241.308594 C 164.628906 241.179688 164.945312 241.117188 165.277344 241.117188 C 165.609375 241.117188 165.925781 241.179688 166.234375 241.308594 C 166.539062 241.433594 166.808594 241.613281 167.042969 241.847656 C 167.277344 242.082031 167.457031 242.351562 167.585938 242.660156 C 167.710938 242.964844 167.773438 243.285156 167.773438 243.613281 Z M 167.773438 243.613281 " fill-opacity="1" fill-rule="nonzero"/><path fill="#e89105" d="M 187.292969 202.308594 C 187.292969 202.640625 187.230469 202.957031 187.101562 203.265625 C 186.976562 203.570312 186.796875 203.839844 186.5625 204.074219 C 186.328125 204.308594 186.058594 204.488281 185.75 204.617188 C 185.445312 204.742188 185.125 204.808594 184.796875 204.808594 C 184.464844 204.808594 184.144531 204.742188 183.839844 204.617188 C 183.53125 204.488281 183.261719 204.308594 183.027344 204.074219 C 182.792969 203.839844 182.613281 203.570312 182.488281 203.265625 C 182.359375 202.957031 182.296875 202.640625 182.296875 202.308594 C 182.296875 201.976562 182.359375 201.660156 182.488281 201.351562 C 182.613281 201.046875 182.792969 200.777344 183.027344 200.542969 C 183.261719 200.308594 183.53125 200.128906 183.839844 200 C 184.144531 199.875 184.464844 199.8125 184.796875 199.8125 C 185.125 199.8125 185.445312 199.875 185.75 200 C 186.058594 200.128906 186.328125 200.308594 186.5625 200.542969 C 186.796875 200.777344 186.976562 201.046875 187.101562 201.351562 C 187.230469 201.660156 187.292969 201.976562 187.292969 202.308594 Z M 187.292969 202.308594 " fill-opacity="1" fill-rule="nonzero"/><path fill="#e89105" d="M 189.957031 161.574219 C 189.957031 161.78125 189.917969 161.980469 189.835938 162.175781 C 189.757812 162.367188 189.644531 162.535156 189.5 162.683594 C 189.351562 162.828125 189.183594 162.941406 188.992188 163.023438 C 188.796875 163.101562 188.597656 163.140625 188.390625 163.140625 C 188.183594 163.140625 187.984375 163.101562 187.792969 163.023438 C 187.601562 162.941406 187.429688 162.828125 187.285156 162.683594 C 187.136719 162.535156 187.023438 162.367188 186.945312 162.175781 C 186.863281 161.980469 186.824219 161.78125 186.824219 161.574219 C 186.824219 161.367188 186.863281 161.167969 186.945312 160.976562 C 187.023438 160.785156 187.136719 160.613281 187.285156 160.46875 C 187.429688 160.320312 187.601562 160.207031 187.792969 160.128906 C 187.984375 160.046875 188.183594 160.007812 188.390625 160.007812 C 188.597656 160.007812 188.796875 160.046875 188.992188 160.128906 C 189.183594 160.207031 189.351562 160.320312 189.5 160.46875 C 189.644531 160.613281 189.757812 160.785156 189.835938 160.976562 C 189.917969 161.167969 189.957031 161.367188 189.957031 161.574219 Z M 189.957031 161.574219 " fill-opacity="1" fill-rule="nonzero"/><path fill="#e89105" d="M 199.445312 134.746094 C 199.445312 134.953125 199.40625 135.152344 199.328125 135.34375 C 199.25 135.535156 199.136719 135.707031 198.988281 135.851562 C 198.839844 136 198.671875 136.113281 198.480469 136.191406 C 198.289062 136.269531 198.089844 136.3125 197.882812 136.3125 C 197.671875 136.3125 197.472656 136.269531 197.28125 136.191406 C 197.089844 136.113281 196.921875 136 196.773438 135.851562 C 196.625 135.707031 196.515625 135.535156 196.433594 135.34375 C 196.355469 135.152344 196.316406 134.953125 196.316406 134.746094 C 196.316406 134.539062 196.355469 134.335938 196.433594 134.144531 C 196.515625 133.953125 196.625 133.785156 196.773438 133.636719 C 196.921875 133.492188 197.089844 133.378906 197.28125 133.296875 C 197.472656 133.21875 197.671875 133.179688 197.882812 133.179688 C 198.089844 133.179688 198.289062 133.21875 198.480469 133.296875 C 198.671875 133.378906 198.839844 133.492188 198.988281 133.636719 C 199.136719 133.785156 199.25 133.953125 199.328125 134.144531 C 199.40625 134.335938 199.445312 134.539062 199.445312 134.746094 Z M 199.445312 134.746094 " fill-opacity="1" fill-rule="nonzero"/><path fill="#e89105" d="M 204.355469 121.8125 C 204.355469 122.019531 204.316406 122.21875 204.234375 122.414062 C 204.15625 122.605469 204.042969 122.773438 203.894531 122.921875 C 203.75 123.066406 203.582031 123.179688 203.386719 123.257812 C 203.195312 123.339844 202.996094 123.378906 202.789062 123.378906 C 202.582031 123.378906 202.382812 123.339844 202.191406 123.257812 C 201.996094 123.179688 201.828125 123.066406 201.683594 122.921875 C 201.535156 122.773438 201.421875 122.605469 201.34375 122.414062 C 201.261719 122.21875 201.222656 122.019531 201.222656 121.8125 C 201.222656 121.605469 201.261719 121.40625 201.34375 121.214844 C 201.421875 121.023438 201.535156 120.851562 201.683594 120.707031 C 201.828125 120.558594 201.996094 120.445312 202.191406 120.367188 C 202.382812 120.285156 202.582031 120.246094 202.789062 120.246094 C 202.996094 120.246094 203.195312 120.285156 203.386719 120.367188 C 203.582031 120.445312 203.75 120.558594 203.894531 120.707031 C 204.042969 120.851562 204.15625 121.023438 204.234375 121.214844 C 204.316406 121.40625 204.355469 121.605469 204.355469 121.8125 Z M 204.355469 121.8125 " fill-opacity="1" fill-rule="nonzero"/><path fill="#e89105" d="M 221.238281 200.742188 C 221.238281 200.949219 221.199219 201.148438 221.121094 201.34375 C 221.039062 201.535156 220.925781 201.703125 220.78125 201.851562 C 220.632812 201.996094 220.464844 202.109375 220.273438 202.191406 C 220.082031 202.269531 219.878906 202.308594 219.671875 202.308594 C 219.464844 202.308594 219.265625 202.269531 219.074219 202.191406 C 218.882812 202.109375 218.710938 201.996094 218.566406 201.851562 C 218.417969 201.703125 218.304688 201.535156 218.226562 201.34375 C 218.148438 201.148438 218.105469 200.949219 218.105469 200.742188 C 218.105469 200.535156 218.148438 200.335938 218.226562 200.144531 C 218.304688 199.953125 218.417969 199.78125 218.566406 199.636719 C 218.710938 199.488281 218.882812 199.375 219.074219 199.296875 C 219.265625 199.214844 219.464844 199.175781 219.671875 199.175781 C 219.878906 199.175781 220.082031 199.214844 220.273438 199.296875 C 220.464844 199.375 220.632812 199.488281 220.78125 199.636719 C 220.925781 199.78125 221.039062 199.953125 221.121094 200.144531 C 221.199219 200.335938 221.238281 200.535156 221.238281 200.742188 Z M 221.238281 200.742188 " fill-opacity="1" fill-rule="nonzero"/><path fill="#e89105" d="M 217.304688 229.292969 C 217.304688 229.5 217.265625 229.699219 217.1875 229.890625 C 217.105469 230.085938 216.992188 230.253906 216.847656 230.398438 C 216.699219 230.546875 216.53125 230.660156 216.339844 230.738281 C 216.148438 230.820312 215.945312 230.859375 215.738281 230.859375 C 215.53125 230.859375 215.332031 230.820312 215.140625 230.738281 C 214.949219 230.660156 214.777344 230.546875 214.632812 230.398438 C 214.484375 230.253906 214.371094 230.085938 214.292969 229.890625 C 214.210938 229.699219 214.171875 229.5 214.171875 229.292969 C 214.171875 229.085938 214.210938 228.886719 214.292969 228.695312 C 214.371094 228.5 214.484375 228.332031 214.632812 228.1875 C 214.777344 228.039062 214.949219 227.925781 215.140625 227.847656 C 215.332031 227.765625 215.53125 227.726562 215.738281 227.726562 C 215.945312 227.726562 216.148438 227.765625 216.339844 227.847656 C 216.53125 227.925781 216.699219 228.039062 216.847656 228.1875 C 216.992188 228.332031 217.105469 228.5 217.1875 228.695312 C 217.265625 228.886719 217.304688 229.085938 217.304688 229.292969 Z M 217.304688 229.292969 " fill-opacity="1" fill-rule="nonzero"/><path fill="#e89105" d="M 149.597656 211.351562 C 149.597656 211.558594 149.558594 211.757812 149.476562 211.949219 C 149.398438 212.140625 149.285156 212.3125 149.136719 212.457031 C 148.992188 212.605469 148.820312 212.71875 148.628906 212.796875 C 148.4375 212.878906 148.238281 212.917969 148.03125 212.917969 C 147.824219 212.917969 147.625 212.878906 147.433594 212.796875 C 147.238281 212.71875 147.070312 212.605469 146.921875 212.457031 C 146.777344 212.3125 146.664062 212.140625 146.585938 211.949219 C 146.503906 211.757812 146.464844 211.558594 146.464844 211.351562 C 146.464844 211.144531 146.503906 210.945312 146.585938 210.75 C 146.664062 210.558594 146.777344 210.390625 146.921875 210.242188 C 147.070312 210.097656 147.238281 209.984375 147.433594 209.902344 C 147.625 209.824219 147.824219 209.785156 148.03125 209.785156 C 148.238281 209.785156 148.4375 209.824219 148.628906 209.902344 C 148.820312 209.984375 148.992188 210.097656 149.136719 210.242188 C 149.285156 210.390625 149.398438 210.558594 149.476562 210.75 C 149.558594 210.945312 149.597656 211.144531 149.597656 211.351562 Z M 149.597656 211.351562 " fill-opacity="1" fill-rule="nonzero"/><path fill="#e89105" d="M 220.347656 120.8125 C 220.347656 121.265625 220.261719 121.699219 220.089844 122.117188 C 219.914062 122.539062 219.667969 122.90625 219.347656 123.226562 C 219.027344 123.546875 218.65625 123.796875 218.238281 123.96875 C 217.820312 124.140625 217.382812 124.230469 216.929688 124.230469 C 216.476562 124.230469 216.042969 124.140625 215.625 123.96875 C 215.203125 123.796875 214.835938 123.546875 214.515625 123.226562 C 214.195312 122.90625 213.945312 122.539062 213.773438 122.117188 C 213.601562 121.699219 213.511719 121.265625 213.511719 120.8125 C 213.511719 120.359375 213.601562 119.921875 213.773438 119.503906 C 213.945312 119.085938 214.195312 118.714844 214.515625 118.394531 C 214.835938 118.074219 215.203125 117.828125 215.625 117.652344 C 216.042969 117.480469 216.476562 117.394531 216.929688 117.394531 C 217.382812 117.394531 217.820312 117.480469 218.238281 117.652344 C 218.65625 117.828125 219.027344 118.074219 219.347656 118.394531 C 219.667969 118.714844 219.914062 119.085938 220.089844 119.503906 C 220.261719 119.921875 220.347656 120.359375 220.347656 120.8125 Z M 220.347656 120.8125 " fill-opacity="1" fill-rule="nonzero"/><path fill="#e89105" d="M 167.773438 219.933594 C 167.773438 220.144531 167.734375 220.34375 167.65625 220.535156 C 167.578125 220.726562 167.464844 220.894531 167.316406 221.042969 C 167.167969 221.1875 167 221.300781 166.808594 221.382812 C 166.617188 221.460938 166.417969 221.5 166.210938 221.5 C 166 221.5 165.800781 221.460938 165.609375 221.382812 C 165.417969 221.300781 165.25 221.1875 165.101562 221.042969 C 164.953125 220.894531 164.839844 220.726562 164.761719 220.535156 C 164.683594 220.34375 164.644531 220.144531 164.644531 219.933594 C 164.644531 219.726562 164.683594 219.527344 164.761719 219.335938 C 164.839844 219.144531 164.953125 218.972656 165.101562 218.828125 C 165.25 218.679688 165.417969 218.566406 165.609375 218.488281 C 165.800781 218.410156 166 218.367188 166.210938 218.367188 C 166.417969 218.367188 166.617188 218.410156 166.808594 218.488281 C 167 218.566406 167.167969 218.679688 167.316406 218.828125 C 167.464844 218.972656 167.578125 219.144531 167.65625 219.335938 C 167.734375 219.527344 167.773438 219.726562 167.773438 219.933594 Z M 167.773438 219.933594 " fill-opacity="1" fill-rule="nonzero"/><path fill="#e89105" d="M 145.058594 199.25 L 145.71875 199.109375 L 148.359375 211.28125 L 147.699219 211.425781 Z M 145.058594 199.25 " fill-opacity="1" fill-rule="nonzero"/><path fill="#e89105" d="M 128.183594 221.203125 L 147.871094 211.054688 L 148.183594 211.65625 L 128.492188 221.804688 Z M 128.183594 221.203125 " fill-opacity="1" fill-rule="nonzero"/><path fill="#e89105" d="M 173.351562 187.894531 L 173.890625 187.484375 L 185.0625 202.101562 L 184.523438 202.511719 Z M 173.351562 187.894531 " fill-opacity="1" fill-rule="nonzero"/><path fill="#e89105" d="M 155.847656 219.695312 L 155.882812 219.019531 L 166.226562 219.585938 L 166.1875 220.265625 Z M 155.847656 219.695312 " fill-opacity="1" fill-rule="nonzero"/><path fill="#e89105" d="M 173.550781 187.359375 L 197.417969 182.121094 L 197.5625 182.78125 L 173.699219 188.023438 Z M 173.550781 187.359375 " fill-opacity="1" fill-rule="nonzero"/><path fill="#e89105" d="M 184.507812 202.125 L 197.203125 182.269531 L 197.773438 182.636719 L 185.078125 202.492188 Z M 184.507812 202.125 " fill-opacity="1" fill-rule="nonzero"/><path fill="#e89105" d="M 184.460938 202.34375 L 185.136719 202.292969 L 188.714844 250.019531 L 188.039062 250.070312 Z M 184.460938 202.34375 " fill-opacity="1" fill-rule="nonzero"/><path fill="#e89105" d="M 165.878906 219.851562 L 173.296875 187.605469 L 173.957031 187.757812 L 166.542969 220 Z M 165.878906 219.851562 " fill-opacity="1" fill-rule="nonzero"/><path fill="#e89105" d="M 197.273438 182.710938 L 197.703125 182.1875 L 219.886719 200.476562 L 219.457031 201 Z M 197.273438 182.710938 " fill-opacity="1" fill-rule="nonzero"/><path fill="#e89105" d="M 219.46875 201.007812 L 219.871094 200.460938 L 234.386719 211.070312 L 233.984375 211.617188 Z M 219.46875 201.007812 " fill-opacity="1" fill-rule="nonzero"/><path fill="#e89105" d="M 219.359375 200.601562 L 230.550781 175.105469 L 231.171875 175.378906 L 219.980469 200.875 Z M 219.359375 200.601562 " fill-opacity="1" fill-rule="nonzero"/><path fill="#e89105" d="M 228.28125 151.027344 L 231.828125 141.160156 L 232.464844 141.390625 L 228.921875 151.257812 Z M 228.28125 151.027344 " fill-opacity="1" fill-rule="nonzero"/><path fill="#e89105" d="M 216.65625 121.011719 L 217.199219 120.601562 L 232.527344 140.757812 L 231.988281 141.167969 Z M 216.65625 121.011719 " fill-opacity="1" fill-rule="nonzero"/><path fill="#e89105" d="M 197.414062 182.121094 L 230.785156 174.921875 L 230.925781 175.585938 L 197.554688 182.785156 Z M 197.414062 182.121094 " fill-opacity="1" fill-rule="nonzero"/><path fill="#e89105" d="M 228.261719 151.191406 L 228.9375 151.128906 L 231.191406 175.222656 L 230.515625 175.285156 Z M 228.261719 151.191406 " fill-opacity="1" fill-rule="nonzero"/><path fill="#e89105" d="M 196.722656 182.097656 L 216.609375 120.714844 L 217.253906 120.925781 L 197.367188 182.308594 Z M 196.722656 182.097656 " fill-opacity="1" fill-rule="nonzero"/><path fill="#e89105" d="M 206.980469 151.84375 L 207.003906 151.167969 L 229.496094 151.878906 L 229.472656 152.554688 Z M 206.980469 151.84375 " fill-opacity="1" fill-rule="nonzero"/><path fill="#e89105" d="M 206.75 151.746094 L 207.226562 151.265625 L 231.339844 175.222656 L 230.863281 175.703125 Z M 206.75 151.746094 " fill-opacity="1" fill-rule="nonzero"/><path fill="#e89105" d="M 170.4375 131.1875 L 170.773438 130.597656 L 207.152344 151.214844 L 206.820312 151.804688 Z M 170.4375 131.1875 " fill-opacity="1" fill-rule="nonzero"/><path fill="#e89105" d="M 169.753906 171.5625 L 206.828125 151.199219 L 207.152344 151.792969 L 170.082031 172.160156 Z M 169.753906 171.5625 " fill-opacity="1" fill-rule="nonzero"/><path fill="#e89105" d="M 188.082031 161.855469 L 188.703125 161.582031 L 197.800781 182.320312 L 197.179688 182.59375 Z M 188.082031 161.855469 " fill-opacity="1" fill-rule="nonzero"/><path fill="#e89105" d="M 135.757812 184.828125 L 135.820312 184.152344 L 174.941406 187.773438 L 174.878906 188.449219 Z M 135.757812 184.828125 " fill-opacity="1" fill-rule="nonzero"/><path fill="#e89105" d="M 145.003906 199.148438 L 173.433594 187.679688 L 173.6875 188.308594 L 145.257812 199.777344 Z M 145.003906 199.148438 " fill-opacity="1" fill-rule="nonzero"/><path fill="#e89105" d="M 173.28125 187.667969 L 174.316406 169.246094 L 174.996094 169.28125 L 173.960938 187.707031 Z M 173.28125 187.667969 " fill-opacity="1" fill-rule="nonzero"/><path fill="#e89105" d="M 197.582031 134.910156 L 198.175781 134.585938 L 207.285156 151.34375 L 206.6875 151.664062 Z M 197.582031 134.910156 " fill-opacity="1" fill-rule="nonzero"/><path fill="#e89105" d="M 218.636719 92.367188 L 218.03125 92.011719 C 217.925781 91.949219 215.449219 90.558594 211.792969 94.375 C 211.042969 93.265625 209.789062 92.585938 208.40625 92.585938 C 206.144531 92.585938 204.308594 94.425781 204.308594 96.683594 C 204.308594 98.59375 205.617188 100.199219 207.390625 100.65625 C 204.785156 104.4375 202.441406 105.1875 200.902344 105.125 C 198.949219 105.050781 197.53125 103.640625 196.859375 102.351562 C 196.242188 101.167969 196.109375 99.269531 196.480469 96.835938 C 196.589844 96.84375 196.699219 96.851562 196.808594 96.851562 C 199.070312 96.851562 200.90625 95.011719 200.90625 92.753906 C 200.90625 90.492188 199.070312 88.65625 196.808594 88.65625 C 194.550781 88.65625 192.710938 90.492188 192.710938 92.753906 C 192.710938 93.972656 193.238281 95.101562 194.152344 95.871094 C 192.921875 97.539062 191.589844 98.75 190.183594 99.476562 C 189.269531 99.949219 186.867188 100.929688 184.324219 99.78125 C 182.144531 98.800781 180.425781 96.464844 179.300781 92.988281 C 179.847656 93.222656 180.441406 93.34375 181.054688 93.34375 C 183.507812 93.34375 185.507812 91.347656 185.507812 88.890625 C 185.507812 86.71875 183.941406 84.902344 181.878906 84.511719 C 182.285156 83.300781 182.492188 82.0625 182.492188 80.816406 C 182.492188 78.398438 181.003906 76.53125 179.691406 74.882812 C 178.710938 73.652344 177.191406 71.953125 177.191406 70.875 C 177.191406 71.953125 175.671875 73.652344 174.6875 74.882812 C 173.378906 76.53125 171.890625 78.398438 171.890625 80.816406 C 171.890625 82.0625 172.09375 83.300781 172.503906 84.511719 C 170.441406 84.902344 168.875 86.71875 168.875 88.890625 C 168.875 91.347656 170.875 93.34375 173.328125 93.34375 C 173.941406 93.34375 174.535156 93.222656 175.082031 92.988281 C 173.960938 96.464844 172.238281 98.800781 170.058594 99.78125 C 167.511719 100.925781 165.109375 99.949219 164.195312 99.476562 C 162.796875 98.75 161.464844 97.539062 160.234375 95.871094 C 161.144531 95.101562 161.671875 93.972656 161.671875 92.753906 C 161.671875 90.492188 159.835938 88.65625 157.574219 88.65625 C 155.316406 88.65625 153.476562 90.492188 153.476562 92.753906 C 153.476562 95.011719 155.316406 96.851562 157.574219 96.851562 C 157.683594 96.851562 157.796875 96.847656 157.902344 96.835938 C 158.273438 99.265625 158.144531 101.167969 157.523438 102.351562 C 156.851562 103.640625 155.433594 105.046875 153.480469 105.125 C 151.941406 105.1875 149.597656 104.4375 146.996094 100.65625 C 148.765625 100.199219 150.078125 98.59375 150.078125 96.683594 C 150.078125 94.425781 148.238281 92.585938 145.980469 92.585938 C 144.59375 92.585938 143.34375 93.265625 142.589844 94.375 C 138.933594 90.558594 136.460938 91.949219 136.351562 92.011719 L 135.75 92.367188 L 136.195312 92.90625 C 142.132812 100 146.945312 109.445312 150.515625 120.984375 L 151.648438 120.636719 C 148.160156 109.351562 143.480469 100.027344 137.734375 92.90625 C 138.617188 92.921875 140.195312 93.386719 142.269531 95.789062 L 142.910156 96.53125 L 143.269531 95.617188 C 143.714844 94.496094 144.773438 93.773438 145.980469 93.773438 C 147.582031 93.773438 148.890625 95.078125 148.890625 96.683594 C 148.890625 98.285156 147.582031 99.59375 145.980469 99.59375 L 144.902344 99.59375 L 145.476562 100.503906 C 148.585938 105.445312 151.570312 106.390625 153.527344 106.3125 C 155.585938 106.230469 157.519531 104.921875 158.574219 102.898438 C 159.363281 101.390625 159.503906 99.136719 159 96.191406 C 160.410156 98.203125 161.976562 99.660156 163.648438 100.527344 C 165.90625 101.699219 168.417969 101.820312 170.542969 100.863281 C 173.414062 99.570312 175.476562 96.5 176.667969 91.742188 L 176.699219 91.605469 L 176.46875 90.347656 L 175.664062 91.171875 C 175.046875 91.808594 174.214844 92.160156 173.324219 92.160156 C 171.523438 92.160156 170.058594 90.691406 170.058594 88.890625 C 170.058594 87.089844 171.523438 85.625 173.324219 85.625 L 174.210938 85.625 L 173.875 84.808594 C 173.34375 83.503906 173.074219 82.160156 173.074219 80.820312 C 173.074219 78.816406 174.363281 77.191406 175.613281 75.625 C 176.207031 74.882812 176.777344 74.164062 177.1875 73.425781 C 177.59375 74.164062 178.167969 74.882812 178.757812 75.625 C 180.007812 77.191406 181.300781 78.816406 181.300781 80.820312 C 181.300781 82.164062 181.03125 83.503906 180.5 84.808594 L 180.164062 85.625 L 181.050781 85.625 C 182.847656 85.625 184.316406 87.089844 184.316406 88.890625 C 184.316406 90.691406 182.847656 92.160156 181.046875 92.160156 C 180.160156 92.160156 179.328125 91.808594 178.707031 91.171875 L 177.914062 90.375 L 177.671875 91.613281 L 177.703125 91.742188 C 178.898438 96.5 180.960938 99.570312 183.828125 100.863281 C 185.953125 101.820312 188.46875 101.699219 190.722656 100.527344 C 192.398438 99.664062 193.960938 98.203125 195.375 96.191406 C 194.867188 99.132812 195.007812 101.390625 195.796875 102.898438 C 196.851562 104.921875 198.785156 106.230469 200.84375 106.3125 C 202.804688 106.394531 205.785156 105.445312 208.898438 100.503906 L 209.46875 99.59375 L 208.394531 99.59375 C 206.789062 99.59375 205.484375 98.285156 205.484375 96.683594 C 205.484375 95.078125 206.789062 93.773438 208.394531 93.773438 C 209.597656 93.773438 210.660156 94.496094 211.101562 95.617188 L 211.460938 96.527344 L 212.101562 95.785156 C 214.179688 93.382812 215.761719 92.917969 216.640625 92.902344 C 210.890625 100.027344 206.210938 109.347656 202.722656 120.632812 L 202.15625 122.472656 L 208.644531 117.308594 L 216.652344 121.339844 L 217.1875 120.277344 L 208.496094 115.90625 L 204.445312 119.128906 C 207.945312 108.429688 212.5625 99.613281 218.171875 92.902344 Z M 159.101562 95.234375 L 158.710938 95.476562 L 158.257812 95.582031 C 158.035156 95.636719 157.808594 95.664062 157.578125 95.664062 C 155.976562 95.664062 154.667969 94.355469 154.667969 92.753906 C 154.667969 91.148438 155.976562 89.84375 157.578125 89.84375 C 159.183594 89.84375 160.488281 91.148438 160.488281 92.753906 C 160.488281 93.773438 159.972656 94.699219 159.101562 95.234375 Z M 195.679688 95.476562 L 195.285156 95.234375 C 194.417969 94.699219 193.898438 93.773438 193.898438 92.753906 C 193.898438 91.152344 195.207031 89.84375 196.808594 89.84375 C 198.414062 89.84375 199.71875 91.152344 199.71875 92.753906 C 199.71875 94.359375 198.414062 95.664062 196.808594 95.664062 C 196.582031 95.664062 196.351562 95.636719 196.128906 95.585938 Z M 195.679688 95.476562 " fill-opacity="1" fill-rule="nonzero"/><path fill="#e89105" d="M 185.84375 139.636719 L 197.746094 134.4375 L 198.015625 135.058594 L 186.117188 140.257812 Z M 185.84375 139.636719 " fill-opacity="1" fill-rule="nonzero"/><path fill="#e89105" d="M 148.714844 169.917969 L 151.527344 173.835938 L 141.570312 179.597656 L 135.761719 177.566406 L 129.699219 175.449219 L 122.980469 166.5625 L 125.449219 164.542969 L 134.273438 172.777344 L 148.527344 173.039062 Z M 148.714844 169.917969 " fill-opacity="1" fill-rule="nonzero"/><path fill="#e89105" d="M 144.222656 183.800781 L 142.894531 186.492188 L 132.226562 187.433594 L 127.644531 180.351562 L 129.390625 176.953125 C 129.394531 176.953125 129.394531 176.949219 129.394531 176.949219 L 136.9375 182.589844 L 140.550781 182.101562 Z M 144.222656 183.800781 " fill-opacity="1" fill-rule="nonzero"/><path fill="#ffe18d" d="M 141.570312 179.597656 L 148.527344 173.039062 L 147.863281 171.746094 L 135.933594 167.992188 L 143.238281 166.746094 L 143.238281 165.769531 L 131.578125 163.140625 L 142.882812 160.960938 L 142.882812 157.457031 L 146.496094 162.878906 L 136.414062 163.257812 L 146.496094 165.125 L 148.023438 167.933594 L 139.496094 168.394531 L 148.714844 169.917969 L 151.527344 173.835938 Z M 141.570312 179.597656 " fill-opacity="1" fill-rule="nonzero"/><path fill="#ffe18d" d="M 140.550781 186.699219 L 132.226562 187.433594 L 127.644531 180.351562 L 129.394531 176.949219 L 134.273438 184.539062 Z M 140.550781 186.699219 " fill-opacity="1" fill-rule="nonzero"/><path fill="#ffe18d" d="M 140.550781 140.25 L 141.078125 145.148438 L 133.316406 158.117188 L 119.957031 158.410156 L 139.359375 143 L 139.359375 139.195312 L 158.710938 122.882812 Z M 140.550781 140.25 " fill-opacity="1" fill-rule="nonzero"/><path fill="#ffe18d" d="M 191.246094 114.214844 L 184.484375 123.378906 L 185.1875 131.589844 L 177.195312 124.265625 L 191.519531 111.121094 L 197.8125 117.832031 Z M 191.246094 114.214844 " fill-opacity="1" fill-rule="nonzero"/><path fill="#e89105" d="M 188.394531 161.261719 L 175.21875 152.796875 L 174.648438 169.621094 L 174.640625 169.644531 L 162.570312 184.851562 L 164.945312 170.964844 L 153.058594 176.480469 L 153.34375 164.210938 L 168.371094 157.265625 L 148.585938 160.121094 L 145.542969 156.792969 L 144.496094 150.136719 L 150.894531 155.25 L 155.460938 146.765625 L 156.019531 146.765625 L 162.777344 141.375 L 156.4375 140.464844 L 150.894531 136.601562 L 168.128906 133.898438 L 167.515625 127.050781 L 162.792969 118.949219 L 162.832031 118.910156 L 166.628906 120.808594 L 173.625 117.390625 L 168.75 126.925781 L 177.691406 130.066406 L 171.511719 130.636719 L 186.539062 139.957031 L 176.359375 139.671875 L 184.160156 149.277344 L 175.027344 145.378906 Z M 188.394531 161.261719 " fill-opacity="1" fill-rule="nonzero"/><path fill="#ffe18d" d="M 175.21875 152.796875 L 172.195312 169.246094 L 162.570312 184.851562 L 164.945312 170.964844 L 153.058594 176.480469 L 153.34375 164.210938 L 157.15625 170.253906 L 166.628906 163.480469 L 168.449219 171.597656 Z M 175.21875 152.796875 " fill-opacity="1" fill-rule="nonzero"/><path fill="#ffe18d" d="M 156.019531 146.765625 L 162.777344 141.375 L 151.691406 139.78125 L 145.390625 146.1875 L 150.894531 136.601562 L 168.128906 140.046875 Z M 156.019531 146.765625 " fill-opacity="1" fill-rule="nonzero"/><path fill="#ffe18d" d="M 218.523438 134.558594 C 218.523438 134.738281 218.457031 134.894531 218.332031 135.023438 C 218.203125 135.152344 218.046875 135.214844 217.863281 135.214844 C 217.683594 135.214844 217.527344 135.152344 217.398438 135.023438 C 217.269531 134.894531 217.207031 134.738281 217.207031 134.558594 C 217.207031 134.375 217.269531 134.21875 217.398438 134.089844 C 217.527344 133.964844 217.683594 133.898438 217.863281 133.898438 C 218.046875 133.898438 218.203125 133.964844 218.332031 134.089844 C 218.457031 134.21875 218.523438 134.375 218.523438 134.558594 Z M 218.523438 134.558594 " fill-opacity="1" fill-rule="nonzero"/><path fill="#ffe18d" d="M 254.015625 146.265625 C 254.015625 146.574219 253.957031 146.875 253.835938 147.160156 C 253.71875 147.445312 253.550781 147.699219 253.328125 147.917969 C 253.109375 148.140625 252.855469 148.308594 252.570312 148.425781 C 252.285156 148.546875 251.984375 148.605469 251.675781 148.605469 C 251.363281 148.605469 251.066406 148.546875 250.78125 148.425781 C 250.492188 148.308594 250.238281 148.140625 250.019531 147.917969 C 249.800781 147.699219 249.632812 147.445312 249.511719 147.160156 C 249.394531 146.875 249.335938 146.574219 249.335938 146.265625 C 249.335938 145.953125 249.394531 145.65625 249.511719 145.371094 C 249.632812 145.082031 249.800781 144.828125 250.019531 144.609375 C 250.238281 144.390625 250.492188 144.222656 250.78125 144.101562 C 251.066406 143.984375 251.363281 143.925781 251.675781 143.925781 C 251.984375 143.925781 252.285156 143.984375 252.570312 144.101562 C 252.855469 144.222656 253.109375 144.390625 253.328125 144.609375 C 253.550781 144.828125 253.71875 145.082031 253.835938 145.371094 C 253.957031 145.65625 254.015625 145.953125 254.015625 146.265625 Z M 254.015625 146.265625 " fill-opacity="1" fill-rule="nonzero"/><path fill="#ffe18d" d="M 167.003906 109.902344 C 167.003906 110.210938 166.945312 110.507812 166.828125 110.796875 C 166.707031 111.082031 166.539062 111.335938 166.320312 111.554688 C 166.101562 111.773438 165.847656 111.945312 165.5625 112.0625 C 165.273438 112.179688 164.976562 112.242188 164.664062 112.242188 C 164.355469 112.242188 164.054688 112.179688 163.769531 112.0625 C 163.484375 111.945312 163.230469 111.773438 163.011719 111.554688 C 162.792969 111.335938 162.621094 111.082031 162.503906 110.796875 C 162.382812 110.507812 162.324219 110.210938 162.324219 109.902344 C 162.324219 109.589844 162.382812 109.292969 162.503906 109.003906 C 162.621094 108.71875 162.792969 108.464844 163.011719 108.246094 C 163.230469 108.027344 163.484375 107.859375 163.769531 107.738281 C 164.054688 107.621094 164.355469 107.5625 164.664062 107.5625 C 164.976562 107.5625 165.273438 107.621094 165.5625 107.738281 C 165.847656 107.859375 166.101562 108.027344 166.320312 108.246094 C 166.539062 108.464844 166.707031 108.71875 166.828125 109.003906 C 166.945312 109.292969 167.003906 109.589844 167.003906 109.902344 Z M 167.003906 109.902344 " fill-opacity="1" fill-rule="nonzero"/><path fill="#ffe18d" d="M 259.441406 157.804688 C 259.441406 157.96875 259.410156 158.132812 259.34375 158.285156 C 259.28125 158.441406 259.191406 158.578125 259.070312 158.695312 C 258.953125 158.8125 258.816406 158.90625 258.660156 158.96875 C 258.507812 159.03125 258.347656 159.066406 258.179688 159.066406 C 258.011719 159.066406 257.851562 159.03125 257.695312 158.96875 C 257.542969 158.90625 257.40625 158.8125 257.285156 158.695312 C 257.167969 158.578125 257.078125 158.441406 257.011719 158.285156 C 256.949219 158.132812 256.917969 157.96875 256.917969 157.804688 C 256.917969 157.636719 256.949219 157.472656 257.011719 157.320312 C 257.078125 157.164062 257.167969 157.027344 257.285156 156.910156 C 257.40625 156.792969 257.542969 156.699219 257.695312 156.636719 C 257.851562 156.574219 258.011719 156.539062 258.179688 156.539062 C 258.347656 156.539062 258.507812 156.574219 258.660156 156.636719 C 258.816406 156.699219 258.953125 156.792969 259.070312 156.910156 C 259.191406 157.027344 259.28125 157.164062 259.34375 157.320312 C 259.410156 157.472656 259.441406 157.636719 259.441406 157.804688 Z M 259.441406 157.804688 " fill-opacity="1" fill-rule="nonzero"/><path fill="#ffe18d" d="M 179.71875 114.109375 C 179.71875 114.277344 179.683594 114.4375 179.621094 114.59375 C 179.558594 114.746094 179.464844 114.882812 179.347656 115 C 179.230469 115.121094 179.09375 115.210938 178.9375 115.273438 C 178.785156 115.339844 178.621094 115.371094 178.457031 115.371094 C 178.289062 115.371094 178.125 115.339844 177.972656 115.273438 C 177.816406 115.210938 177.679688 115.121094 177.5625 115 C 177.445312 114.882812 177.351562 114.746094 177.289062 114.59375 C 177.226562 114.4375 177.191406 114.277344 177.191406 114.109375 C 177.191406 113.941406 177.226562 113.78125 177.289062 113.625 C 177.351562 113.472656 177.445312 113.335938 177.5625 113.214844 C 177.679688 113.097656 177.816406 113.007812 177.972656 112.941406 C 178.125 112.878906 178.289062 112.847656 178.457031 112.847656 C 178.621094 112.847656 178.785156 112.878906 178.9375 112.941406 C 179.09375 113.007812 179.230469 113.097656 179.347656 113.214844 C 179.464844 113.335938 179.558594 113.472656 179.621094 113.625 C 179.683594 113.78125 179.71875 113.941406 179.71875 114.109375 Z M 179.71875 114.109375 " fill-opacity="1" fill-rule="nonzero"/><path fill="#ffe18d" d="M 206.246094 199.769531 C 206.246094 199.945312 206.210938 200.109375 206.144531 200.269531 C 206.078125 200.429688 205.984375 200.570312 205.863281 200.691406 C 205.742188 200.8125 205.601562 200.90625 205.441406 200.972656 C 205.28125 201.039062 205.117188 201.074219 204.941406 201.074219 C 204.769531 201.074219 204.605469 201.039062 204.445312 200.972656 C 204.285156 200.90625 204.144531 200.8125 204.023438 200.691406 C 203.898438 200.570312 203.804688 200.429688 203.738281 200.269531 C 203.675781 200.109375 203.640625 199.945312 203.640625 199.769531 C 203.640625 199.597656 203.675781 199.433594 203.738281 199.273438 C 203.804688 199.113281 203.898438 198.972656 204.023438 198.851562 C 204.144531 198.726562 204.285156 198.632812 204.445312 198.566406 C 204.605469 198.503906 204.769531 198.46875 204.941406 198.46875 C 205.117188 198.46875 205.28125 198.503906 205.441406 198.566406 C 205.601562 198.632812 205.742188 198.726562 205.863281 198.851562 C 205.984375 198.972656 206.078125 199.113281 206.144531 199.273438 C 206.210938 199.433594 206.246094 199.597656 206.246094 199.769531 Z M 206.246094 199.769531 " fill-opacity="1" fill-rule="nonzero"/><path fill="#ffe18d" d="M 217.367188 189.367188 C 217.367188 189.554688 217.300781 189.714844 217.167969 189.84375 C 217.035156 189.976562 216.878906 190.042969 216.691406 190.042969 C 216.503906 190.042969 216.34375 189.976562 216.214844 189.84375 C 216.082031 189.714844 216.015625 189.554688 216.015625 189.367188 C 216.015625 189.179688 216.082031 189.019531 216.214844 188.890625 C 216.34375 188.757812 216.503906 188.691406 216.691406 188.691406 C 216.878906 188.691406 217.035156 188.757812 217.167969 188.890625 C 217.300781 189.019531 217.367188 189.179688 217.367188 189.367188 Z M 217.367188 189.367188 " fill-opacity="1" fill-rule="nonzero"/><path fill="#ffe18d" d="M 245.886719 204.105469 C 245.886719 204.324219 245.84375 204.539062 245.761719 204.742188 C 245.675781 204.945312 245.554688 205.125 245.398438 205.28125 C 245.242188 205.4375 245.0625 205.558594 244.859375 205.644531 C 244.65625 205.730469 244.441406 205.769531 244.222656 205.769531 C 244 205.769531 243.789062 205.730469 243.582031 205.644531 C 243.378906 205.558594 243.199219 205.4375 243.042969 205.28125 C 242.886719 205.125 242.765625 204.945312 242.683594 204.742188 C 242.597656 204.539062 242.554688 204.324219 242.554688 204.105469 C 242.554688 203.882812 242.597656 203.671875 242.683594 203.46875 C 242.765625 203.261719 242.886719 203.082031 243.042969 202.925781 C 243.199219 202.769531 243.378906 202.648438 243.582031 202.566406 C 243.789062 202.480469 244 202.4375 244.222656 202.4375 C 244.441406 202.4375 244.65625 202.480469 244.859375 202.566406 C 245.0625 202.648438 245.242188 202.769531 245.398438 202.925781 C 245.554688 203.082031 245.675781 203.261719 245.761719 203.46875 C 245.84375 203.671875 245.886719 203.882812 245.886719 204.105469 Z M 245.886719 204.105469 " fill-opacity="1" fill-rule="nonzero"/><path fill="#ffe18d" d="M 232.019531 232.789062 C 232.019531 233.023438 231.9375 233.226562 231.769531 233.390625 C 231.605469 233.554688 231.40625 233.640625 231.171875 233.640625 C 230.9375 233.640625 230.738281 233.554688 230.570312 233.390625 C 230.40625 233.226562 230.324219 233.023438 230.324219 232.789062 C 230.324219 232.558594 230.40625 232.355469 230.570312 232.191406 C 230.738281 232.027344 230.9375 231.941406 231.171875 231.941406 C 231.40625 231.941406 231.605469 232.027344 231.769531 232.191406 C 231.9375 232.355469 232.019531 232.558594 232.019531 232.789062 Z M 232.019531 232.789062 " fill-opacity="1" fill-rule="nonzero"/><path fill="#ffe18d" d="M 213.882812 165.242188 C 213.882812 165.410156 213.847656 165.574219 213.78125 165.734375 C 213.71875 165.890625 213.625 166.03125 213.503906 166.152344 C 213.382812 166.273438 213.242188 166.367188 213.085938 166.429688 C 212.929688 166.496094 212.765625 166.527344 212.59375 166.527344 C 212.421875 166.527344 212.257812 166.496094 212.101562 166.429688 C 211.941406 166.367188 211.804688 166.273438 211.683594 166.152344 C 211.5625 166.03125 211.46875 165.890625 211.402344 165.734375 C 211.335938 165.574219 211.304688 165.410156 211.304688 165.242188 C 211.304688 165.070312 211.335938 164.90625 211.402344 164.746094 C 211.46875 164.589844 211.5625 164.449219 211.683594 164.332031 C 211.804688 164.210938 211.941406 164.117188 212.101562 164.050781 C 212.257812 163.984375 212.421875 163.953125 212.59375 163.953125 C 212.765625 163.953125 212.929688 163.984375 213.085938 164.050781 C 213.242188 164.117188 213.382812 164.210938 213.503906 164.332031 C 213.625 164.449219 213.71875 164.589844 213.78125 164.746094 C 213.847656 164.90625 213.882812 165.070312 213.882812 165.242188 Z M 213.882812 165.242188 " fill-opacity="1" fill-rule="nonzero"/><path fill="#ffe18d" d="M 192.984375 151.355469 C 192.984375 151.625 192.890625 151.851562 192.699219 152.039062 C 192.511719 152.230469 192.285156 152.324219 192.015625 152.324219 C 191.75 152.324219 191.523438 152.230469 191.335938 152.039062 C 191.144531 151.851562 191.050781 151.625 191.050781 151.355469 C 191.050781 151.089844 191.144531 150.863281 191.335938 150.675781 C 191.523438 150.484375 191.75 150.390625 192.015625 150.390625 C 192.285156 150.390625 192.511719 150.484375 192.699219 150.675781 C 192.890625 150.863281 192.984375 151.089844 192.984375 151.355469 Z M 192.984375 151.355469 " fill-opacity="1" fill-rule="nonzero"/><path fill="#ffe18d" d="M 192.015625 131.933594 C 192.015625 132.097656 191.984375 132.257812 191.921875 132.410156 C 191.859375 132.5625 191.769531 132.699219 191.652344 132.816406 C 191.535156 132.933594 191.398438 133.023438 191.246094 133.085938 C 191.09375 133.152344 190.933594 133.183594 190.765625 133.183594 C 190.601562 133.183594 190.441406 133.152344 190.289062 133.085938 C 190.136719 133.023438 190 132.933594 189.882812 132.816406 C 189.765625 132.699219 189.675781 132.5625 189.613281 132.410156 C 189.546875 132.257812 189.515625 132.097656 189.515625 131.933594 C 189.515625 131.765625 189.546875 131.609375 189.613281 131.453125 C 189.675781 131.300781 189.765625 131.167969 189.882812 131.050781 C 190 130.933594 190.136719 130.839844 190.289062 130.777344 C 190.441406 130.714844 190.601562 130.683594 190.765625 130.683594 C 190.933594 130.683594 191.09375 130.714844 191.246094 130.777344 C 191.398438 130.839844 191.535156 130.933594 191.652344 131.050781 C 191.769531 131.167969 191.859375 131.300781 191.921875 131.453125 C 191.984375 131.609375 192.015625 131.765625 192.015625 131.933594 Z M 192.015625 131.933594 " fill-opacity="1" fill-rule="nonzero"/><path fill="#ffe18d" d="M 179.496094 104.351562 C 179.496094 104.429688 179.46875 104.5 179.414062 104.554688 C 179.355469 104.609375 179.289062 104.640625 179.210938 104.640625 C 179.128906 104.640625 179.0625 104.609375 179.003906 104.554688 C 178.949219 104.5 178.921875 104.429688 178.921875 104.351562 C 178.921875 104.269531 178.949219 104.203125 179.003906 104.148438 C 179.0625 104.089844 179.128906 104.0625 179.210938 104.0625 C 179.289062 104.0625 179.355469 104.089844 179.414062 104.148438 C 179.46875 104.203125 179.496094 104.269531 179.496094 104.351562 Z M 179.496094 104.351562 " fill-opacity="1" fill-rule="nonzero"/><path fill="#ffe18d" d="M 155.964844 234.589844 C 155.964844 234.855469 155.871094 235.078125 155.683594 235.265625 C 155.5 235.449219 155.273438 235.542969 155.011719 235.542969 C 154.75 235.542969 154.523438 235.449219 154.339844 235.265625 C 154.152344 235.078125 154.058594 234.855469 154.058594 234.589844 C 154.058594 234.328125 154.152344 234.105469 154.339844 233.917969 C 154.523438 233.730469 154.75 233.640625 155.011719 233.640625 C 155.273438 233.640625 155.5 233.730469 155.683594 233.917969 C 155.871094 234.105469 155.964844 234.328125 155.964844 234.589844 Z M 155.964844 234.589844 " fill-opacity="1" fill-rule="nonzero"/><path fill="#ffe18d" d="M 184.378906 228.523438 C 184.378906 228.734375 184.339844 228.941406 184.257812 229.136719 C 184.175781 229.332031 184.058594 229.503906 183.910156 229.65625 C 183.757812 229.804688 183.585938 229.921875 183.390625 230.003906 C 183.195312 230.085938 182.988281 230.125 182.777344 230.125 C 182.566406 230.125 182.359375 230.085938 182.164062 230.003906 C 181.96875 229.921875 181.792969 229.804688 181.644531 229.65625 C 181.492188 229.503906 181.378906 229.332031 181.296875 229.136719 C 181.214844 228.941406 181.175781 228.734375 181.175781 228.523438 C 181.175781 228.308594 181.214844 228.105469 181.296875 227.910156 C 181.378906 227.714844 181.492188 227.539062 181.644531 227.390625 C 181.792969 227.238281 181.96875 227.125 182.164062 227.042969 C 182.359375 226.960938 182.566406 226.921875 182.777344 226.921875 C 182.988281 226.921875 183.195312 226.960938 183.390625 227.042969 C 183.585938 227.125 183.757812 227.238281 183.910156 227.390625 C 184.058594 227.539062 184.175781 227.714844 184.257812 227.910156 C 184.339844 228.105469 184.378906 228.308594 184.378906 228.523438 Z M 184.378906 228.523438 " fill-opacity="1" fill-rule="nonzero"/><path fill="#ffe18d" d="M 191.054688 211.074219 C 191.054688 211.324219 190.964844 211.539062 190.789062 211.71875 C 190.609375 211.894531 190.394531 211.984375 190.144531 211.984375 C 189.894531 211.984375 189.679688 211.894531 189.503906 211.71875 C 189.324219 211.539062 189.238281 211.324219 189.238281 211.074219 C 189.238281 210.824219 189.324219 210.609375 189.503906 210.433594 C 189.679688 210.253906 189.894531 210.167969 190.144531 210.167969 C 190.394531 210.167969 190.609375 210.253906 190.789062 210.433594 C 190.964844 210.609375 191.054688 210.824219 191.054688 211.074219 Z M 191.054688 211.074219 " fill-opacity="1" fill-rule="nonzero"/><path fill="#ffe18d" d="M 164.664062 212.503906 C 164.664062 212.757812 164.574219 212.976562 164.394531 213.15625 C 164.214844 213.335938 163.996094 213.425781 163.742188 213.425781 C 163.488281 213.425781 163.269531 213.335938 163.089844 213.15625 C 162.910156 212.976562 162.820312 212.757812 162.820312 212.503906 C 162.820312 212.25 162.910156 212.03125 163.089844 211.851562 C 163.269531 211.671875 163.488281 211.582031 163.742188 211.582031 C 163.996094 211.582031 164.214844 211.671875 164.394531 211.851562 C 164.574219 212.03125 164.664062 212.25 164.664062 212.503906 Z M 164.664062 212.503906 " fill-opacity="1" fill-rule="nonzero"/><path fill="#ffe18d" d="M 187.472656 180.609375 C 187.472656 180.890625 187.417969 181.160156 187.308594 181.421875 C 187.203125 181.683594 187.046875 181.910156 186.847656 182.109375 C 186.648438 182.308594 186.421875 182.464844 186.160156 182.570312 C 185.898438 182.679688 185.628906 182.734375 185.347656 182.734375 C 185.066406 182.734375 184.792969 182.679688 184.535156 182.570312 C 184.273438 182.464844 184.042969 182.308594 183.84375 182.109375 C 183.644531 181.910156 183.492188 181.683594 183.382812 181.421875 C 183.277344 181.160156 183.222656 180.890625 183.222656 180.609375 C 183.222656 180.328125 183.277344 180.054688 183.382812 179.796875 C 183.492188 179.535156 183.644531 179.304688 183.84375 179.105469 C 184.042969 178.90625 184.273438 178.753906 184.535156 178.648438 C 184.792969 178.539062 185.066406 178.484375 185.347656 178.484375 C 185.628906 178.484375 185.898438 178.539062 186.160156 178.648438 C 186.421875 178.753906 186.648438 178.90625 186.847656 179.105469 C 187.046875 179.304688 187.203125 179.535156 187.308594 179.796875 C 187.417969 180.054688 187.472656 180.328125 187.472656 180.609375 Z M 187.472656 180.609375 " fill-opacity="1" fill-rule="nonzero"/><path fill="#ffe18d" d="M 135.761719 177.566406 L 129.699219 175.449219 L 122.980469 166.5625 L 125.449219 164.542969 L 131.273438 174.777344 Z M 135.761719 177.566406 " fill-opacity="1" fill-rule="nonzero"/><g fill="#fcc300" fill-opacity="1"><g transform="translate(126.514164, 284.344729)"><g><path d="M 1.800781 -12.417969 L 2.757812 -12.417969 C 2.757812 -12.417969 2.878906 -13.4375 3.390625 -15.234375 C 4.078125 -17.695312 5.667969 -20.394531 7.707031 -20.394531 C 8.367188 -20.394531 8.816406 -20.035156 8.816406 -19.375 L 8.816406 -1.679688 C 8.816406 -1.140625 8.636719 -0.960938 8.097656 -0.960938 L 5.699219 -0.960938 L 5.699219 0 L 16.375 0 L 16.375 -0.960938 L 13.976562 -0.960938 C 13.4375 -0.960938 13.257812 -1.140625 13.257812 -1.679688 L 13.257812 -19.375 C 13.257812 -20.035156 13.707031 -20.394531 14.367188 -20.394531 C 16.40625 -20.394531 17.996094 -17.695312 18.683594 -15.234375 C 19.195312 -13.4375 19.316406 -12.417969 19.316406 -12.417969 L 20.273438 -12.417969 L 20.035156 -21.355469 L 2.039062 -21.355469 Z M 1.800781 -12.417969 "/></g></g></g><g fill="#fcc300" fill-opacity="1"><g transform="translate(151.55581, 284.344729)"><g><path d="M 1.859375 0 L 18.957031 0 L 19.136719 -8.277344 L 18.175781 -8.277344 C 18.175781 -8.277344 17.933594 -6.328125 17.546875 -5.21875 C 16.976562 -3.597656 15.566406 -0.960938 13.105469 -0.960938 L 9.835938 -0.960938 C 9.296875 -0.960938 9.117188 -1.140625 9.117188 -1.679688 L 9.117188 -10.316406 L 10.648438 -10.316406 C 12.328125 -10.316406 13.648438 -7.917969 13.648438 -6.148438 L 14.605469 -6.148438 L 14.605469 -15.535156 L 13.648438 -15.535156 C 13.648438 -13.796875 12.328125 -11.398438 10.648438 -11.398438 L 9.117188 -11.398438 L 9.117188 -19.675781 C 9.117188 -20.214844 9.296875 -20.394531 9.835938 -20.394531 L 13.136719 -20.394531 C 14.695312 -20.394531 15.894531 -19.285156 16.734375 -17.816406 C 17.636719 -16.316406 17.933594 -14.394531 17.933594 -14.394531 L 18.894531 -14.394531 L 18.714844 -21.355469 L 1.859375 -21.355469 L 1.859375 -20.394531 L 3.960938 -20.394531 C 4.5 -20.394531 4.679688 -20.214844 4.679688 -19.675781 L 4.679688 -1.679688 C 4.679688 -1.140625 4.5 -0.960938 3.960938 -0.960938 L 1.859375 -0.960938 Z M 1.859375 0 "/></g></g></g><g fill="#fcc300" fill-opacity="1"><g transform="translate(175.817758, 284.344729)"><g><path d="M 1.078125 -4.617188 C 1.078125 -1.230469 3.539062 0.539062 6.417969 0.539062 C 9.476562 0.539062 12.777344 -1.738281 12.777344 -5.820312 L 12.777344 -19.675781 C 12.777344 -20.214844 12.957031 -20.394531 13.496094 -20.394531 L 15.355469 -20.394531 L 15.355469 -21.355469 L 5.21875 -21.355469 L 5.21875 -20.394531 L 7.617188 -20.394531 C 8.15625 -20.394531 8.339844 -20.214844 8.339844 -19.675781 L 8.339844 -3.898438 C 8.339844 -1.679688 7.648438 -0.417969 6.058594 -0.417969 C 4.289062 -0.417969 3.121094 -1.5 3.121094 -2.28125 C 3.121094 -2.9375 3.390625 -3.300781 4.078125 -3.539062 C 4.917969 -3.839844 5.910156 -4.558594 5.910156 -6.058594 C 5.910156 -7.136719 5.097656 -8.128906 3.777344 -8.128906 C 2.460938 -8.128906 1.078125 -6.777344 1.078125 -4.617188 Z M 1.078125 -4.617188 "/></g></g></g><g fill="#fcc300" fill-opacity="1"><g transform="translate(195.581457, 284.344729)"><g><path d="M 7.347656 -6.777344 L 10.167969 -15.027344 L 12.898438 -6.777344 Z M 1.320312 0 L 8.96875 0 L 8.96875 -0.960938 L 7.558594 -0.960938 C 6.566406 -0.960938 6 -1.648438 6 -2.308594 C 6 -2.699219 6.117188 -3.300781 6.328125 -3.839844 L 6.957031 -5.667969 L 13.257812 -5.667969 L 14.214844 -2.789062 C 14.304688 -2.519531 14.394531 -2.097656 14.394531 -1.917969 C 14.394531 -1.410156 14.066406 -0.960938 13.585938 -0.960938 L 11.425781 -0.960938 L 11.425781 0 L 21.953125 0 L 21.953125 -0.960938 L 20.753906 -0.960938 C 19.976562 -0.960938 19.34375 -1.441406 18.984375 -2.488281 L 12.566406 -21.894531 L 11.308594 -21.894531 L 4.980469 -3.390625 C 4.558594 -2.1875 3.628906 -0.960938 2.339844 -0.960938 L 1.320312 -0.960938 Z M 1.320312 0 "/></g></g></g><g fill="#fcc300" fill-opacity="1"><g transform="translate(221.76266, 284.344729)"><g><path d="M 1.441406 0 L 8.878906 0 L 8.878906 -0.960938 C 7.316406 -0.960938 5.757812 -1.738281 5.757812 -3.660156 L 5.757812 -16.105469 L 5.96875 -16.105469 L 12.085938 0.359375 L 13.257812 0.359375 L 18.476562 -18.746094 L 18.476562 -1.679688 C 18.476562 -1.140625 18.296875 -0.960938 17.753906 -0.960938 L 15.65625 -0.960938 L 15.65625 0 L 25.734375 0 L 25.734375 -0.960938 L 23.632812 -0.960938 C 23.09375 -0.960938 22.914062 -1.140625 22.914062 -1.679688 L 22.914062 -19.675781 C 22.914062 -20.214844 23.09375 -20.394531 23.632812 -20.394531 L 25.734375 -20.394531 L 25.734375 -21.355469 L 18.117188 -21.355469 L 14.097656 -6.597656 L 8.609375 -21.355469 L 1.441406 -21.355469 L 1.441406 -20.394531 L 3.839844 -20.394531 C 4.378906 -20.394531 4.558594 -20.214844 4.558594 -19.675781 L 4.558594 -3.660156 C 4.558594 -1.738281 3 -0.960938 1.441406 -0.960938 Z M 1.441406 0 "/></g></g></g><g fill="#fff6de" fill-opacity="1"><g transform="translate(123.430697, 302.845)"><g><path d="M 6.84375 0 L 0.34375 0 L 0.34375 -0.375 C 0.75 -0.414062 1.015625 -0.472656 1.140625 -0.546875 C 1.273438 -0.617188 1.34375 -0.765625 1.34375 -0.984375 L 1.34375 -5.875 C 1.34375 -6.082031 1.273438 -6.226562 1.140625 -6.3125 C 1.015625 -6.40625 0.75 -6.484375 0.34375 -6.546875 L 0.34375 -6.921875 L 6.484375 -6.921875 L 6.484375 -5.15625 L 6.109375 -5.15625 C 6.015625 -5.4375 5.859375 -5.695312 5.640625 -5.9375 C 5.429688 -6.175781 5.242188 -6.328125 5.078125 -6.390625 C 4.910156 -6.453125 4.582031 -6.484375 4.09375 -6.484375 L 3.09375 -6.484375 L 3.09375 -3.8125 L 3.796875 -3.8125 C 4.179688 -3.8125 4.460938 -3.898438 4.640625 -4.078125 C 4.828125 -4.265625 4.96875 -4.578125 5.0625 -5.015625 L 5.4375 -5.015625 L 5.4375 -2.125 L 5.0625 -2.125 C 4.945312 -2.632812 4.800781 -2.96875 4.625 -3.125 C 4.457031 -3.289062 4.179688 -3.375 3.796875 -3.375 L 3.09375 -3.375 L 3.09375 -1.375 C 3.09375 -1.007812 3.144531 -0.757812 3.25 -0.625 C 3.351562 -0.5 3.675781 -0.4375 4.21875 -0.4375 C 4.6875 -0.4375 5.023438 -0.457031 5.234375 -0.5 C 5.441406 -0.539062 5.59375 -0.597656 5.6875 -0.671875 C 5.789062 -0.753906 5.953125 -0.976562 6.171875 -1.34375 C 6.398438 -1.707031 6.546875 -1.976562 6.609375 -2.15625 L 6.96875 -2.15625 Z M 6.84375 0 "/></g></g></g><g fill="#fff6de" fill-opacity="1"><g transform="translate(135.63855, 302.845)"><g><path d="M 4.078125 0 L 4.078125 -0.375 C 4.734375 -0.4375 5.0625 -0.53125 5.0625 -0.65625 C 5.0625 -0.71875 5.046875 -0.789062 5.015625 -0.875 L 4.421875 -2.3125 L 2.03125 -2.3125 C 1.695312 -1.53125 1.53125 -1.03125 1.53125 -0.8125 C 1.53125 -0.59375 1.875 -0.445312 2.5625 -0.375 L 2.5625 0 L -0.265625 0 L -0.265625 -0.375 C 0.015625 -0.394531 0.25 -0.457031 0.4375 -0.5625 C 0.625 -0.664062 0.753906 -0.785156 0.828125 -0.921875 C 0.898438 -1.054688 1.207031 -1.78125 1.75 -3.09375 L 3.375 -7.03125 L 4.34375 -7.03125 L 6.390625 -1.96875 C 6.660156 -1.289062 6.828125 -0.90625 6.890625 -0.8125 C 6.960938 -0.71875 7.070312 -0.628906 7.21875 -0.546875 C 7.363281 -0.460938 7.578125 -0.40625 7.859375 -0.375 L 7.859375 0 Z M 3.203125 -5.3125 L 2.21875 -2.796875 L 4.21875 -2.796875 Z M 3.203125 -5.3125 "/></g></g></g><g fill="#fff6de" fill-opacity="1"><g transform="translate(148.212464, 302.845)"><g><path d="M 5.625 0 C 4.90625 -1.125 4.144531 -2.164062 3.34375 -3.125 L 3.09375 -3.125 L 3.09375 -1.015625 C 3.09375 -0.828125 3.148438 -0.6875 3.265625 -0.59375 C 3.390625 -0.5 3.644531 -0.425781 4.03125 -0.375 L 4.03125 0 L 0.34375 0 L 0.34375 -0.375 C 0.769531 -0.414062 1.039062 -0.476562 1.15625 -0.5625 C 1.28125 -0.644531 1.34375 -0.785156 1.34375 -0.984375 L 1.34375 -5.875 C 1.34375 -6.082031 1.28125 -6.226562 1.15625 -6.3125 C 1.039062 -6.394531 0.769531 -6.472656 0.34375 -6.546875 L 0.34375 -6.921875 L 4.21875 -6.921875 C 5.988281 -6.921875 6.875 -6.375 6.875 -5.28125 C 6.875 -4.375 6.3125 -3.753906 5.1875 -3.421875 L 6.578125 -1.65625 C 6.992188 -1.125 7.269531 -0.800781 7.40625 -0.6875 C 7.550781 -0.570312 7.664062 -0.5 7.75 -0.46875 C 7.832031 -0.4375 8.015625 -0.40625 8.296875 -0.375 L 8.296875 0 Z M 3.09375 -6.484375 L 3.09375 -3.578125 L 3.46875 -3.578125 C 4.46875 -3.578125 4.96875 -4.101562 4.96875 -5.15625 C 4.96875 -6.039062 4.46875 -6.484375 3.46875 -6.484375 Z M 3.09375 -6.484375 "/></g></g></g><g fill="#fff6de" fill-opacity="1"><g transform="translate(161.176852, 302.845)"><g><path d="M 8.296875 -6.546875 C 8.265625 -6.535156 8.210938 -6.53125 8.140625 -6.53125 C 7.773438 -6.488281 7.507812 -6.378906 7.34375 -6.203125 C 7.1875 -6.035156 7.109375 -5.601562 7.109375 -4.90625 L 7.109375 0.046875 L 6.25 0.046875 L 1.921875 -5.328125 L 1.921875 -2.078125 C 1.921875 -1.429688 1.992188 -1.007812 2.140625 -0.8125 C 2.296875 -0.613281 2.632812 -0.46875 3.15625 -0.375 L 3.15625 0 L 0.171875 0 L 0.171875 -0.375 C 0.679688 -0.4375 1.003906 -0.554688 1.140625 -0.734375 C 1.273438 -0.921875 1.34375 -1.347656 1.34375 -2.015625 L 1.34375 -5.28125 C 1.34375 -5.96875 0.941406 -6.382812 0.140625 -6.53125 L 0.140625 -6.921875 L 2.75 -6.921875 L 6.53125 -2.234375 L 6.53125 -4.859375 C 6.53125 -5.492188 6.457031 -5.910156 6.3125 -6.109375 C 6.164062 -6.316406 5.835938 -6.460938 5.328125 -6.546875 L 5.328125 -6.921875 L 8.296875 -6.921875 Z M 8.296875 -6.546875 "/></g></g></g><g fill="#fff6de" fill-opacity="1"><g transform="translate(174.560997, 302.845)"><g/></g></g><g fill="#fff6de" fill-opacity="1"><g transform="translate(182.097818, 302.845)"><g><path d="M 7.015625 -1.734375 C 6.390625 -0.453125 5.375 0.1875 3.96875 0.1875 C 2.914062 0.1875 2.050781 -0.140625 1.375 -0.796875 C 0.695312 -1.453125 0.359375 -2.320312 0.359375 -3.40625 C 0.359375 -4.5 0.710938 -5.390625 1.421875 -6.078125 C 2.128906 -6.765625 3.023438 -7.109375 4.109375 -7.109375 C 4.785156 -7.109375 5.40625 -6.957031 5.96875 -6.65625 L 6.265625 -6.921875 L 6.6875 -6.921875 L 6.734375 -4.40625 L 6.296875 -4.40625 C 6.054688 -5.164062 5.765625 -5.726562 5.421875 -6.09375 C 5.078125 -6.457031 4.660156 -6.640625 4.171875 -6.640625 C 3.566406 -6.640625 3.101562 -6.378906 2.78125 -5.859375 C 2.457031 -5.335938 2.296875 -4.570312 2.296875 -3.5625 C 2.296875 -2.5625 2.476562 -1.800781 2.84375 -1.28125 C 3.21875 -0.757812 3.738281 -0.5 4.40625 -0.5 C 5.28125 -0.5 6.015625 -1 6.609375 -2 Z M 7.015625 -1.734375 "/></g></g></g><g fill="#fff6de" fill-opacity="1"><g transform="translate(194.242213, 302.845)"><g><path d="M 5.625 0 C 4.90625 -1.125 4.144531 -2.164062 3.34375 -3.125 L 3.09375 -3.125 L 3.09375 -1.015625 C 3.09375 -0.828125 3.148438 -0.6875 3.265625 -0.59375 C 3.390625 -0.5 3.644531 -0.425781 4.03125 -0.375 L 4.03125 0 L 0.34375 0 L 0.34375 -0.375 C 0.769531 -0.414062 1.039062 -0.476562 1.15625 -0.5625 C 1.28125 -0.644531 1.34375 -0.785156 1.34375 -0.984375 L 1.34375 -5.875 C 1.34375 -6.082031 1.28125 -6.226562 1.15625 -6.3125 C 1.039062 -6.394531 0.769531 -6.472656 0.34375 -6.546875 L 0.34375 -6.921875 L 4.21875 -6.921875 C 5.988281 -6.921875 6.875 -6.375 6.875 -5.28125 C 6.875 -4.375 6.3125 -3.753906 5.1875 -3.421875 L 6.578125 -1.65625 C 6.992188 -1.125 7.269531 -0.800781 7.40625 -0.6875 C 7.550781 -0.570312 7.664062 -0.5 7.75 -0.46875 C 7.832031 -0.4375 8.015625 -0.40625 8.296875 -0.375 L 8.296875 0 Z M 3.09375 -6.484375 L 3.09375 -3.578125 L 3.46875 -3.578125 C 4.46875 -3.578125 4.96875 -4.101562 4.96875 -5.15625 C 4.96875 -6.039062 4.46875 -6.484375 3.46875 -6.484375 Z M 3.09375 -6.484375 "/></g></g></g><g fill="#fff6de" fill-opacity="1"><g transform="translate(207.2066, 302.845)"><g><path d="M 7.65625 -6.546875 C 7.40625 -6.515625 7.1875 -6.441406 7 -6.328125 C 6.820312 -6.222656 6.625 -6.019531 6.40625 -5.71875 C 6.1875 -5.414062 5.851562 -4.910156 5.40625 -4.203125 C 4.957031 -3.503906 4.703125 -3.070312 4.640625 -2.90625 C 4.578125 -2.75 4.546875 -2.460938 4.546875 -2.046875 L 4.546875 -1.0625 C 4.546875 -0.769531 4.671875 -0.585938 4.921875 -0.515625 C 5.171875 -0.453125 5.398438 -0.40625 5.609375 -0.375 L 5.609375 0 L 1.734375 0 L 1.734375 -0.375 C 2.191406 -0.414062 2.484375 -0.472656 2.609375 -0.546875 C 2.742188 -0.628906 2.8125 -0.785156 2.8125 -1.015625 L 2.8125 -2.234375 C 2.8125 -2.515625 2.773438 -2.722656 2.703125 -2.859375 C 2.640625 -2.992188 2.335938 -3.515625 1.796875 -4.421875 C 1.253906 -5.335938 0.921875 -5.875 0.796875 -6.03125 C 0.671875 -6.1875 0.519531 -6.304688 0.34375 -6.390625 C 0.175781 -6.472656 -0.0351562 -6.523438 -0.296875 -6.546875 L -0.296875 -6.921875 L 3.671875 -6.921875 L 3.671875 -6.546875 C 3.585938 -6.535156 3.488281 -6.53125 3.375 -6.53125 C 2.945312 -6.507812 2.734375 -6.429688 2.734375 -6.296875 C 2.734375 -6.140625 3.265625 -5.175781 4.328125 -3.40625 C 5.398438 -5.113281 5.9375 -6.039062 5.9375 -6.1875 C 5.9375 -6.394531 5.648438 -6.515625 5.078125 -6.546875 L 5.078125 -6.921875 L 7.65625 -6.921875 Z M 7.65625 -6.546875 "/></g></g></g><g fill="#fff6de" fill-opacity="1"><g transform="translate(219.521833, 302.845)"><g><path d="M 3.09375 -2.984375 L 3.09375 -1.046875 C 3.09375 -0.835938 3.15625 -0.679688 3.28125 -0.578125 C 3.414062 -0.484375 3.6875 -0.414062 4.09375 -0.375 L 4.09375 0 L 0.34375 0 L 0.34375 -0.375 C 0.769531 -0.414062 1.039062 -0.472656 1.15625 -0.546875 C 1.28125 -0.628906 1.34375 -0.773438 1.34375 -0.984375 L 1.34375 -5.875 C 1.34375 -6.113281 1.257812 -6.269531 1.09375 -6.34375 C 0.9375 -6.425781 0.6875 -6.492188 0.34375 -6.546875 L 0.34375 -6.921875 L 4.15625 -6.921875 C 5.9375 -6.921875 6.828125 -6.347656 6.828125 -5.203125 C 6.828125 -4.484375 6.550781 -3.929688 6 -3.546875 C 5.457031 -3.171875 4.675781 -2.984375 3.65625 -2.984375 Z M 3.09375 -6.484375 L 3.09375 -3.4375 L 3.296875 -3.4375 C 4.390625 -3.4375 4.9375 -3.941406 4.9375 -4.953125 C 4.9375 -5.492188 4.820312 -5.882812 4.59375 -6.125 C 4.363281 -6.363281 3.992188 -6.484375 3.484375 -6.484375 Z M 3.09375 -6.484375 "/></g></g></g><g fill="#fff6de" fill-opacity="1"><g transform="translate(231.529568, 302.845)"><g><path d="M 6.40625 -4.953125 C 6.257812 -5.328125 6.085938 -5.65625 5.890625 -5.9375 C 5.691406 -6.21875 5.519531 -6.378906 5.375 -6.421875 C 5.238281 -6.460938 4.953125 -6.484375 4.515625 -6.484375 L 4.296875 -6.484375 L 4.296875 -1.0625 C 4.296875 -0.84375 4.359375 -0.6875 4.484375 -0.59375 C 4.617188 -0.507812 4.910156 -0.4375 5.359375 -0.375 L 5.359375 0 L 1.484375 0 L 1.484375 -0.375 C 1.929688 -0.414062 2.21875 -0.472656 2.34375 -0.546875 C 2.476562 -0.617188 2.546875 -0.773438 2.546875 -1.015625 L 2.546875 -6.484375 L 2.328125 -6.484375 C 1.878906 -6.484375 1.582031 -6.457031 1.4375 -6.40625 C 1.300781 -6.363281 1.132812 -6.195312 0.9375 -5.90625 C 0.738281 -5.625 0.570312 -5.304688 0.4375 -4.953125 L 0.0625 -4.953125 L 0.0625 -6.921875 L 6.78125 -6.921875 L 6.78125 -4.953125 Z M 6.40625 -4.953125 "/></g></g></g><g fill="#fff6de" fill-opacity="1"><g transform="translate(243.366466, 302.845)"><g><path d="M 4.078125 0.1875 C 3.023438 0.1875 2.140625 -0.144531 1.421875 -0.8125 C 0.710938 -1.488281 0.359375 -2.347656 0.359375 -3.390625 C 0.359375 -4.492188 0.710938 -5.390625 1.421875 -6.078125 C 2.128906 -6.773438 3.023438 -7.125 4.109375 -7.125 C 5.171875 -7.125 6.0625 -6.785156 6.78125 -6.109375 C 7.5 -5.441406 7.859375 -4.578125 7.859375 -3.515625 C 7.859375 -2.429688 7.507812 -1.539062 6.8125 -0.84375 C 6.125 -0.15625 5.210938 0.1875 4.078125 0.1875 Z M 4.109375 -6.640625 C 3.523438 -6.640625 3.078125 -6.363281 2.765625 -5.8125 C 2.453125 -5.257812 2.296875 -4.46875 2.296875 -3.4375 C 2.296875 -2.4375 2.453125 -1.660156 2.765625 -1.109375 C 3.078125 -0.554688 3.523438 -0.28125 4.109375 -0.28125 C 4.691406 -0.28125 5.132812 -0.554688 5.4375 -1.109375 C 5.75 -1.660156 5.90625 -2.453125 5.90625 -3.484375 C 5.90625 -4.484375 5.75 -5.257812 5.4375 -5.8125 C 5.132812 -6.363281 4.691406 -6.640625 4.109375 -6.640625 Z M 4.109375 -6.640625 "/></g></g></g></svg>